<svg id="Layer_1" data-name="Layer 1" xmlns="http://www.w3.org/2000/svg" width="295.15" height="185.22" viewBox="0 0 295.15 185.22"><defs><style>.cls-1{fill:#fff;}</style></defs><path class="cls-1" d="M62.33,34.52c.08.43-.36.72-.07,1.15a.93.93,0,0,0-.14.36c-.43.44-.79.72-1.15,1.16a1.08,1.08,0,0,0-.22,1.36.71.71,0,0,1-.14.87c-.44.36-.44.93-.65,1.37s-.22,1-.79,1.08c-.08.14-.36.36-.36.57,0,.51-.29.65-.58.94-.07.21.43.57,0,.65-.22.14-.29.36-.43.57l-1.23,1.73s.15.22.22.22H57A44.85,44.85,0,0,1,62.12,45a1.69,1.69,0,0,1,.93.22,5.4,5.4,0,0,0,.87.57c.21.15.43.36.21.65-.07.29.22.43.44.43a.81.81,0,0,1,0,1.37,2.28,2.28,0,0,1-1.52.51,8.89,8.89,0,0,1-2.44.57c-.08-.14-.29,0-.58.07-.43.36-1.08.36-1.51.65a1,1,0,0,1-.94,0c-.14-.07-.29-.07-.29,0-.57.72-1.8.43-2.3.94-.22.14-.36,0-.43,0a4.59,4.59,0,0,0-1,.43c-.29.51-.72.72-.79,1.15A6.42,6.42,0,0,1,51.24,55a13.06,13.06,0,0,0-1.15,1.51c-.07.15-.07.36-.21.44s-.72.14-.65.72-.51.36-.51.64-.43.58-.64.94c-.08,0-.08,0-.08.14-.21.44-.36,1.08-.79,1.3s-.72.79-1.29.94c-.36.21-.36.43-.08.79.08.21-.28.43-.36.29-.5-.15-.64-.08-.79.28a5,5,0,0,0-.5.8,1.24,1.24,0,0,1,.5.07c.15,0,.15.36.15.36-1.08.57-1.37,1.44-2,2.37a13.66,13.66,0,0,1-1.22,1.59c-.51.43-.36,1.15-.72,1.73-.36.28-.94.64-.94,1.22a.93.93,0,0,1-.65.79c-.57.22-.57.29-.79,0a4.3,4.3,0,0,0-.57-.57c-.08-.08-.08-.22-.08-.51A3.44,3.44,0,0,0,38,70c0-.22-.08-.22-.29-.07-.43.07-.58.07-.58-.44a3.73,3.73,0,0,1,.43-2.08c1.23-2,2.6-3.82,4-5.62l.72-.94a16.19,16.19,0,0,1,2.09-3.16l.36-.36a21.53,21.53,0,0,1,2.38-3.39V53.6a.53.53,0,0,0-.29-.14c-.14,0-.43.14-.65.14-.57.08-1.15.44-1.8.51a2.18,2.18,0,0,0-1.22.57c-.22.29-.43.29-.79.29-.65,0-1.23.43-1.88.51a7.42,7.42,0,0,1-2.73.57c-.29,0-.43-.14-.58-.43a2.73,2.73,0,0,1-.43-.5,1.74,1.74,0,0,1,.07-1.95,2.93,2.93,0,0,1,1.59-.94c1.65-.43,3.16-.93,4.75-1.36,2.45-.72,4.75-1.59,7.13-2.24a1.85,1.85,0,0,0,.72-.5l.79-1.3a1.84,1.84,0,0,1,.86-1.08c.15,0,.22-.14.22-.28.72-1.44,1.8-2.52,2.38-4,.79-.79.93-2,1.58-2.88a3.22,3.22,0,0,0,.36-.93c.22-.36.22-.72.58-1,.93-.79,1.08-2.09,1.65-3.17s.94-2.38,1.37-3.53a9.45,9.45,0,0,0,.65-2A18,18,0,0,0,62,25.3c.29-.79.36-1.72.58-2.52a1.07,1.07,0,0,0,.14-.64c0-.58-.14-1.16.36-1.66-.14-.86,0-1.8-.14-2.52a1.1,1.1,0,0,1,0-.94c.14-.14,0-.36,0-.43l-.58-1.8A4.21,4.21,0,0,0,60,12.34a9.84,9.84,0,0,0-2.16-.43H54.41c-.79,0-1.44.43-2.23.36-1.22.58-2.74.65-4.1,1.3s-2.81,1.08-4.32,1.65a11.85,11.85,0,0,0-2.45,1.37l-1,.58a.89.89,0,0,0-.79.43,5.9,5.9,0,0,1-1.15.58,1.6,1.6,0,0,0-.94.43c-.86,1-2.38,1.37-3.31,2.3a2.62,2.62,0,0,0-1.37.79c-.43.29-.94.44-1.37.72s-.93.58-1.37.94-.86.72-1.29,1a7.68,7.68,0,0,1-2.09,1.37c-.36.21-.65.36-.79.79a.69.69,0,0,1-.36.21c-.58.08-.8.51-1.3.8A19.18,19.18,0,0,1,21,30.13c-.86.72-1.65,1.37-2.45,2.16a13.67,13.67,0,0,0-1,1c-.44.36-.8.72-1.23,1s-.43.79-1,1.08c-.5.79-1.36,1.36-1.72,2.23-.22.43-.15.79.21.93.87.15,1,.72.87,1.52,0,.57,0,.57-.58.72a2,2,0,0,1-1.3-.44,8.66,8.66,0,0,1-1.87-2.08,4,4,0,0,1-.36-.8v-.72c.07-.14.36-.43.22-.72a.42.42,0,0,1,0-.57c.14-.07.14-.36.21-.58.8-.79,1.44-1.73,2.31-2.52.29-.29.79-.57,1.22-1l1.23-.93c.28-.29.43-.72,1-.72.36,0,.36-.58.8-.65a5.91,5.91,0,0,0,.93-.94c.22-.36.65-.36.87-.72a1.76,1.76,0,0,1,1.22-.57v.57c0,.15-.22.29-.22.29-.57-.29-.28.22-.43.43.43,0,1.08,0,1.23-.43.43-.58,1.22-.86,1.51-1.37.79,0,1.08-.86,1.8-1.15a4,4,0,0,1,.57-.43c.22-.22.51-.15.65-.36s1.23-.15.79-1c.15,0,.22-.14.36-.14s.36.36.65.14a9,9,0,0,1,2.59-1.8,4.1,4.1,0,0,0,1.37-.94c.15-.14-.07-.28-.07-.43s.29-.43.29-.36a1,1,0,0,0,1.08-.07c.29-.14.65-.22.79-.65.29,0,.58,0,.72-.29A1.18,1.18,0,0,1,35.48,18c.28,0,.5-.21.72-.29,1.36-1.08,2.95-1.72,4.39-2.66a14.83,14.83,0,0,1,3.31-1.44c1-.36,1.94-.86,2.88-1.3,1.22-.43,2.38-.64,3.31-1.08a27.59,27.59,0,0,0,3-.79A3.54,3.54,0,0,1,54,10.4a20.4,20.4,0,0,1,2.88-.14l.15-.15c0-.07-.15-.07-.15-.07h-4c-.51,0-1.08.36-1.73.36-.43,0-1,.29-1.51.29-.43-.15-.87.36-1.37.36s-1,.57-1.58.57c-.15,0-.29-.14-.36-.14a.07.07,0,0,1,.07-.07s0-.15.14-.15c.43-.21.87-.57,1.37-.79a6.17,6.17,0,0,1,1.8-.43c.43,0,.79-.36,1.3-.36H52c.43-.5,1,0,1.58-.36a4.49,4.49,0,0,1,1.37,0c.36-.14.65.43,1.15.14.58.29,1.15,0,1.66.29s1,0,1.44.51a11.19,11.19,0,0,1,1.29.79c.44.21.87.57,1.3.79a3,3,0,0,1,1.51,1.73.73.73,0,0,1,.29.57,1.67,1.67,0,0,1,.72,1.66.67.67,0,0,0,.36.79.61.61,0,0,1,.29,1,.46.46,0,0,0,.29.58,1.13,1.13,0,0,1,.28.93c.15.51-.07,1.23.29,1.8.07,0,.07.07,0,.15-.36.72-.14,1.51-.29,2.16a.5.5,0,0,1-.28.36,1.22,1.22,0,0,0-.58,1,1.64,1.64,0,0,0,.14,1.16c.58.14.15.57.08.79a8.22,8.22,0,0,0-.87,3.17c-.14.28-.57.57-.29.86s.15.72-.14,1.08c-.29.15-.43.65-.72,1A.9.9,0,0,0,62.69,34a.35.35,0,0,1-.36.5c0-.07,0-.29-.21-.07A.54.54,0,0,0,62.33,34.52Zm-44.06-5-.15-.07v.07Zm1.36-1.08c-.14,0-.43,0-.5.15s.07.14.22.14C19.35,28.62,19.49,28.62,19.63,28.47Zm.29-.36c-.21.08-.21.08-.29.36A.32.32,0,0,0,19.92,28.11Zm.65-1.29v-.44c1.15-.93,2.3-1.65,3.46-2.44h.43a3.24,3.24,0,0,1-1.15,1.22c-.44.29-.94.94-1.44,1a.32.32,0,0,0-.29.21C21.43,27,21,26.82,20.57,26.82Zm3.89-2.88v-.36a1.56,1.56,0,0,1,1.37-.65L26,23v.14A2.07,2.07,0,0,1,24.46,23.94Zm2-1.66a.34.34,0,0,1,.22-.29h.36v.29c-.14.07-.22.29-.36.29S26.4,22.42,26.47,22.28Zm.58-.29a1.78,1.78,0,0,1,1.58-1C28.42,21.7,27.77,21.85,27.05,22Zm2.23-1.08a1.83,1.83,0,0,1-.65.07.32.32,0,0,0,.08-.21,2.61,2.61,0,0,0,1.15-1.15,1.26,1.26,0,0,1,.58-.22.78.78,0,0,1,.5.14.64.64,0,0,1-.14.44A11,11,0,0,0,29.28,20.91ZM32,18.82q-.21-.21,0-.21l.58-.22c-.15.22-.29.29-.29.43A.2.2,0,0,1,32,18.82Zm.58-.43c0-.14.14-.14.14-.21C32.88,18.39,32.74,18.39,32.6,18.39Zm.93.65a.43.43,0,0,0-.29-.07C33.46,18.75,33.53,18.9,33.53,19ZM33.6,18v-.22c.08-.43.51-.72.8-.93h.43c.14,0,.14,0,.14.07v.29L33.68,18Zm2-1.3-.14-.07c.28-.21.28-.79.72-.79a1,1,0,0,1,.5.22s0,.07-.14.21-.58.36-.8.58Zm.72,30.17H36.2l.14-.14C36.41,46.83,36.41,46.83,36.34,46.83Zm1.44-31.61c0-.36.22-.43.43-.57A7.53,7.53,0,0,1,39.8,14l.14.14c.07,0,.07.15,0,.15s-.22.36-.43.5c-.43.22-1,.43-1.59.65A.26.26,0,0,1,37.78,15.22ZM41.67,64.4c-.29,0-.36.36-.72.08-.36-.08-.51.28-.51.57.15.36.15.58,0,.72a4.08,4.08,0,0,0-2.08,2.16l-.15.15v.07c0,.07.15.07.29.07a1.61,1.61,0,0,0,1.3-1c.5-.5.93-1.08,1.51-1.65A1.34,1.34,0,0,0,41.67,64.4Zm-.94-50.69c.15-.07.15-.14.22-.29.43-.21.86-.21,1.44-.5l.14.14-.14.15a2,2,0,0,1-1.44.65A.27.27,0,0,0,40.73,13.71ZM47.5,55a1.78,1.78,0,0,1-1,1.87c-.14.08-.21.22-.36.36s-.29.44-.57.44a.25.25,0,0,0-.15.07c-.43.72-.72,1.37-1.08,2.09.22.28,0,.43-.29.43s-.43,0-.28.36a.38.38,0,0,1-.44.43c-.14,0-.21-.22-.36.14a3.24,3.24,0,0,0-.28.72c0,.65-.15.8-.72,1.08a.91.91,0,0,0-.29.8v.64c.43-.07.57-.43.72-.64,1.08-1.37,1.94-2.88,3-4.25a7.57,7.57,0,0,1,.65-.94c.58-.93,1.3-1.51,1.8-2.37a22.36,22.36,0,0,1,2.23-3.32c.15-.14.36-.21,0-.36a.43.43,0,0,0-.29-.07c-.57.22-1.15.43-1.36,1.15a7.13,7.13,0,0,1-.65,1.08ZM43,12.78a4.13,4.13,0,0,1,.15-.51h1.08c-.15.36-.65.51-1,.58A.8.8,0,0,1,43,12.78Zm1.23,51.05c-.07,0-.29,0-.07.14C44.12,64,44.12,63.83,44.19,63.83Zm0-51.56c.29-.65.79-.65,1.37-.86a.72.72,0,0,0,.28.07v.22A2.11,2.11,0,0,1,44.19,12.27Zm2.88,38.24c-.15,0-.29,0-.15.21C47.07,50.58,47.07,50.58,47.07,50.51Zm.14,0c.15,0,.43-.08.65-.08s.14,0,.22-.14H48C47.64,50.15,47.28,50,47.21,50.51Zm.65,4.17c0,.15.14.15.22.15C47.86,55,47.86,54.83,47.86,54.68ZM48.58,50c.07,0,.07.15.14.15S48.87,50,49,50s-.14-.07-.14-.07h-.22A.07.07,0,0,0,48.58,50Zm1-.29c.07,0,.07.15.21.15s.08-.15.08-.15-.22-.14-.29-.14Zm3-2c0-.15-.14-.22-.14-.36l-.07.14a.45.45,0,0,0,.07.29C52.47,47.7,52.61,47.7,52.61,47.7ZM63.34,27H63.2c-.07,0-.15.14-.15.29a3,3,0,0,1-.5,1.8,2.82,2.82,0,0,0-.22.86c0,.07-.07.36-.07.51a.54.54,0,0,0-.5.64c-.07.44-.36.73-.43,1.23l-.58,1.37a30.43,30.43,0,0,0-1.58,3.6,14.35,14.35,0,0,0-1.44,2.23c-.58.86-1,1.73-1.52,2.66a12.46,12.46,0,0,1-1.15,2.24c-.5.64-.65,1.58-1.22,2.3-.15,0-.15.14-.15.29s.44.36.58.29a2,2,0,0,0,1.22-.94A4,4,0,0,1,56,45c.14-.5.57-.79.79-1.15s.22-.29.36-.58c.29-.79,1-1.44,1.08-2.37a19.47,19.47,0,0,0,1.73-3,4.88,4.88,0,0,0,.5-1.08,5.23,5.23,0,0,1,.72-1.87c.15-.07.22-.36.22-.43a2.38,2.38,0,0,1,.36-1.3c.21-.64.65-1.36.93-2.09a20.07,20.07,0,0,1,.94-3.52C63.63,27.39,63.49,27.25,63.34,27ZM53.69,45.75c0,.15.15.15.15,0Zm2.16,2.88c-.14,0-.36.08-.07.15A.25.25,0,0,1,55.85,48.63Zm.29-.28c-.14,0-.14.14-.21.28.86,0,1.8-.5,2.73-.5.15-.22.58-.07.87-.58-.29-.07-.36-.21-.44-.21-.57.36-1.15.14-1.72.43A2.85,2.85,0,0,1,56.14,48.35Zm.22-.87c.07,0,.21-.14,0-.14Zm.65-.36s0,.15.14.15.14-.15.22-.15L57.29,47A.49.49,0,0,0,57,47.12Zm1.15-36.65c-.15,0-.15,0-.15-.07l-.07.07a.07.07,0,0,0,.07.07S58,10.47,58.16,10.47Zm1.22,29.88-.14-.14v.14Zm-.14,6v0Zm.29,1.15H60c0-.07.07-.07,0-.07v-.14C59.74,47.27,59.53,47.34,59.53,47.55Zm4.39-21.67c0-.14-.15-.14-.15-.14a.14.14,0,0,0-.14.14v.79s.14,0,.14.07.15-.07.15-.07v-.29C63.92,26.17,64.06,26,63.92,25.88Zm.36-.86s-.15,0-.15-.08,0,.08-.07.08.07.14.07.14Zm.65-4.83-.08-.14a.14.14,0,0,0-.14.14v.87c0,.64-.14.93,0,1.22,0,.07,0,.14.14.14a.24.24,0,0,0,.08-.14,4.52,4.52,0,0,1,.21-1.66C65.29,20.62,65,20.34,64.93,20.19Zm.21,2.95c.15,0,0-.14,0-.14a.14.14,0,0,0-.14.14C65,23.22,65.14,23.22,65.14,23.14Z"/><path class="cls-1" d="M98.19,45.18a3.56,3.56,0,0,1-.58,1.15c-.57.94-5.61,4.18-6.19,5.11-.94,1.23-2.09,1.3-3.46,1.3a1.06,1.06,0,0,1-1.08-.58c-.07-.43-.29-.65-.36-1-.72-1.36-1.08-1.94-.64-3.52,0-.22-.37-.44-.58-.36-.72.36-1.51.57-2.16.93-3.1,2-6.19,3.68-8.86,6-.36.29-.86.58-1.29.87s-.87.72-1.3,1.15a10.61,10.61,0,0,0-2.45,2.66,39.66,39.66,0,0,0-3.38,4.25c-.36.79-1,1.15-1.3,1.8-.29.5-.5.58-.93.36s-.51-.14-.58-.22c-.36-.57-.79-.93-1.08-1.44A6.07,6.07,0,0,1,62,62a4.36,4.36,0,0,1,.58-1c1.15-2.09,2.3-4.1,3.52-6.41,1.44-2.45,2.81-5.11,4.11-7.7a23.48,23.48,0,0,0,1.65-3.53,1.59,1.59,0,0,1,2.31-.65l1.15.65c.22.36.43.86.14,1.08-.93,1-1.15,2.37-1.8,3.38l-1.94,3.53c-.07,0-.07.29,0,.36h.22a54.94,54.94,0,0,1,9.43-6.26c1.8-.87,3.6-1.52,5.33-2.38a3,3,0,0,1,3.53.79l1.15,1.23a1.14,1.14,0,0,1-.22,1.51,3,3,0,0,0-.93,1.15c-.22.86-1,1.44-1.16,2.23,1.8-.36,7.35-4.61,9-5.25C98.19,44.82,98.19,45.11,98.19,45.18Z"/><path class="cls-1" d="M126.77,49c0,.15-.36.22-.43.22a13.27,13.27,0,0,0-3.46,1.22c-1.8.8-3.6,1.45-5.33,2.17-.21.14-.5.14-.57.28-1.44,1.08-3.24,1.37-4.75,2.24-1.59.64-3.17,1.36-4.68,2.08a20,20,0,0,1-7.06,2.45c-.43.15-.72.15-1,.51-1.44.57-2.66.07-3.89-.36a4.08,4.08,0,0,1-1.87-1.08,4.74,4.74,0,0,1-1.51-2.45,5.86,5.86,0,0,1,0-3.17l.5-.94a17,17,0,0,1,5-6.41,31.07,31.07,0,0,1,6.56-4.82,5.94,5.94,0,0,1,2.59-1.08c.65-.29,1.51-.36,2.16-.65a2.07,2.07,0,0,1,2.59-.21c.14.21.36,0,.65.21s.72.15.79.29a5.82,5.82,0,0,1,1.15,1.58,2.26,2.26,0,0,1-.14,2.81c-.94,1.15-1.51,2.45-2.95,3l-1,.64a13.56,13.56,0,0,1-6.7,2.67,5.15,5.15,0,0,1-2.09.21c-.93,0-2.09-.21-3.24-.21a.74.74,0,0,0-.65.29c-1.15,1.65-2.59,3.17-3.24,5a1,1,0,0,0,.58,1.37c.79.21,1.73.64,2.45.21a19.38,19.38,0,0,0,4.61-.86,32.89,32.89,0,0,0,3.67-1.37c1.37-.65,2.45-1.22,3.67-1.87.36.43.36.43.72,0a5.31,5.31,0,0,1,1.87-1.15c.15-.29.51-.29.94-.44,2.38-1,4.82-2.23,7.06-3.17a12.63,12.63,0,0,1,2.08-.79,8.08,8.08,0,0,0,1.8-.93,1.59,1.59,0,0,1,2.09.57,1.63,1.63,0,0,0,.65.43C126.92,47.84,127.2,48.63,126.77,49Zm-28.15.15c.21.21.64,0,.86,0a1.93,1.93,0,0,1,.94-.15v.15c.65-.15,1.51-.22,2.08-.36a21,21,0,0,0,2.45-.94,15.06,15.06,0,0,0,5-2.59,4.41,4.41,0,0,0,1.8-2.16,1.5,1.5,0,0,0,.22-1c.22-.36-.07-.5-.36-.79s-.5.07-.58.29-.43.36-.86.36a10.1,10.1,0,0,0-4.54,1.44A27.79,27.79,0,0,0,101,46.55l-1.94,1.87C99,48.49,98.54,48.92,98.62,49.14Z"/><path class="cls-1" d="M168.46,45.11a1.76,1.76,0,0,1-.58.36,5.11,5.11,0,0,0-2.23.93c-2.37,1.59-4.82,3.46-7.27,5.19A12.11,12.11,0,0,1,156.51,53c-.65.43-1.08,1-1.66,1.37-1.94,1.65-3.67,3.16-5.62,4.68a12.86,12.86,0,0,1-2,1.22c-1.44.79-2.74,1.73-4.18,2.52a3.36,3.36,0,0,1-1.73.58,9.5,9.5,0,0,0-2.37.64,2.41,2.41,0,0,1-1.37-.28c-2.66-1.44-3.24-4.11-2.74-6.56a2.57,2.57,0,0,1,.29-1.15c.94-2,2-4.1,3-6.12.79-1.3,1.51-2.66,2.37-4a1.89,1.89,0,0,0,.51-1.08A4.77,4.77,0,0,0,139.66,46a43.65,43.65,0,0,1-3,3.24A28.39,28.39,0,0,0,134,52.38a49.13,49.13,0,0,1-5.11,5.18,4.31,4.31,0,0,1-.79.58,6.39,6.39,0,0,1-2.09,2c-.43.07-.58.36-.79.43a8.51,8.51,0,0,1-3,1.58,3.5,3.5,0,0,1-1.51,0,4.52,4.52,0,0,1-3.09-4,6.29,6.29,0,0,1,.72-3.6,35.67,35.67,0,0,1,4-7.27,17.86,17.86,0,0,1,2.66-3,48.19,48.19,0,0,1,4.47-4.24,6.94,6.94,0,0,1,3.6-1.37,12.84,12.84,0,0,1,3.74.86,13.48,13.48,0,0,1,1.73,1.23c.58.28.58.28,1.15,0a1.74,1.74,0,0,0,.36-.36,1.89,1.89,0,0,1-.21,1.15.53.53,0,0,0,.14.65c.07.07.14.21.5.07l.44-.22c1.29-1.58,3-2.81,4.17-4.68.58-.5,1.08-1,1.66-1.44a16,16,0,0,0,2.52-3.24c1.44-1.66,2.81-3.45,4-5,.72-.86,1.3-1.44,1.22-2.52a1,1,0,0,1,.22-.58c1.15-1.22,2.38-2.37,3.39-3.52a19.25,19.25,0,0,0,3.16-3.68,18.81,18.81,0,0,1,2.16-2,1.29,1.29,0,0,1,2.09.86,3.67,3.67,0,0,1-.07.94,1.44,1.44,0,0,0,0,1.08c.29.5.07,1-.43,1.44-.65.57-1.3,1.29-1.87,1.87a31,31,0,0,0-5.12,5.62,17.92,17.92,0,0,1-2,2.09c-.87,1.36-1.87,2.8-2.81,4s-1.59,2.45-2.59,3.53c-1.52,1.87-2.88,4-4.4,6-.5.58-.79,1.52-1.65,1.66-.07,0-.07.29-.07.29a1.11,1.11,0,0,1-.58,1.22c-.29.36-.36,1.08-.58,1.44-.93,1.3-1.51,2.67-2.44,3.89a9.71,9.71,0,0,0-1.23,2.31,10.66,10.66,0,0,1-.86,1.44A17.79,17.79,0,0,0,137,59.44c-.36,1.58-.07,2,1.52,1.36a12.76,12.76,0,0,0,5-2.3,51.91,51.91,0,0,0,5.83-4.25c3-2.59,6.12-4.68,9.14-7.13a67.78,67.78,0,0,1,6.27-4,1.88,1.88,0,0,1,1.65-.07c.22.72,1.16.43,1.52.86.21.07.36.36.5.43A.81.81,0,0,1,168.46,45.11Zm-34.78,1.8c.65-.58,1.15-.94,1.66-1.44.72-.94,1.37-1.73,2.16-2.6.07-.36,0-.57-.29-.57h-1.66a7.19,7.19,0,0,0-5,1.58,17.63,17.63,0,0,0-3,2.52,2.6,2.6,0,0,0-.87,1.08c-.21.65-.86,1.15-1.22,1.66a30,30,0,0,0-3.6,4.9,22.44,22.44,0,0,0-1.44,3.88.53.53,0,0,0,.07.58,1.13,1.13,0,0,0,.51-.07l3-2c1.22-1,2.52-2.23,3.89-3.38C129.79,51.08,132,49,133.68,46.91Zm4.83-3.32a.38.38,0,0,0-.58,0,4.12,4.12,0,0,0-1,1.23l-4.75,5.25a3.41,3.41,0,0,1-.58.65c-.21.36-.65.72-.93,1.16a5.17,5.17,0,0,0,.93-.51,41.21,41.21,0,0,0,4.76-4.46c.64-.65,1.22-1.37,1.8-2l.5-.58C138.72,44.24,138.65,43.88,138.51,43.59Zm2.08-3.6,1.95-2.23a4.09,4.09,0,0,0,.65.07.92.92,0,0,1,.36-1.15,31.26,31.26,0,0,1,2.23-2.23,11.2,11.2,0,0,1,.93-1.15,3,3,0,0,0,1.37-1.44c0-.07.43-.07.51-.22s.21-.5.43-.58c0-.21.07-.21.07-.21a.33.33,0,0,0,.14.29c-.14.65-.21,1.29-.93,1.65-.72.58-1.44,1.44-2.16,2a25.85,25.85,0,0,1-2.67,2.95c0,.07-.14.07-.28.07V38a10.29,10.29,0,0,1-1.88,2.09C141.1,40.28,140.81,40.07,140.59,40Zm14,11.89a1.72,1.72,0,0,0-1.22.64A1.09,1.09,0,0,0,154.63,51.88ZM156,50.43a.59.59,0,0,0-.57.65C156,51.08,156,51.08,156,50.43Zm6.41-4.17a8.8,8.8,0,0,0,1.66-1.15,2.78,2.78,0,0,0-1.8.64,17.27,17.27,0,0,0-2.59,1.8,3.61,3.61,0,0,0-1.8,1.23c-.58.57-1.37.86-1.88,1.44.72.21,1-.07,1.66-.36C159.17,48.63,160.83,47.34,162.41,46.26Z"/><path class="cls-1" d="M193.44,49c0,.15-.36.22-.43.22a13.4,13.4,0,0,0-3.46,1.22c-1.8.8-3.6,1.45-5.32,2.17-.22.14-.51.14-.58.28-1.44,1.08-3.24,1.37-4.75,2.24-1.59.64-3.17,1.36-4.68,2.08a20,20,0,0,1-7.06,2.45c-.43.15-.72.15-1,.51-1.44.57-2.66.07-3.89-.36a4.13,4.13,0,0,1-1.87-1.08,4.74,4.74,0,0,1-1.51-2.45,5.86,5.86,0,0,1,0-3.17l.5-.94a17.07,17.07,0,0,1,5-6.41A31.07,31.07,0,0,1,171,40.93a5.94,5.94,0,0,1,2.59-1.08c.65-.29,1.51-.36,2.16-.65a2.07,2.07,0,0,1,2.59-.21c.14.21.36,0,.65.21s.72.15.79.29a5.82,5.82,0,0,1,1.15,1.58,2.26,2.26,0,0,1-.14,2.81c-.94,1.15-1.51,2.45-3,3l-1,.64a13.56,13.56,0,0,1-6.7,2.67,5.15,5.15,0,0,1-2.09.21c-.93,0-2.08-.21-3.24-.21a.72.72,0,0,0-.64.29c-1.16,1.65-2.6,3.17-3.24,5a1,1,0,0,0,.57,1.37c.79.21,1.73.64,2.45.21a19.38,19.38,0,0,0,4.61-.86,32.89,32.89,0,0,0,3.67-1.37c1.37-.65,2.45-1.22,3.67-1.87.36.43.36.43.72,0a5.31,5.31,0,0,1,1.87-1.15c.15-.29.51-.29.94-.44,2.38-1,4.83-2.23,7.06-3.17a12.73,12.73,0,0,1,2.09-.79,8.54,8.54,0,0,0,1.8-.93,1.58,1.58,0,0,1,2.08.57,1.7,1.7,0,0,0,.65.43C193.59,47.84,193.87,48.63,193.44,49Zm-28.15.15c.21.21.65,0,.86,0a1.93,1.93,0,0,1,.94-.15v.15c.65-.15,1.51-.22,2.09-.36a21.6,21.6,0,0,0,2.44-.94,15.06,15.06,0,0,0,5-2.59,4.41,4.41,0,0,0,1.8-2.16,1.5,1.5,0,0,0,.22-1c.22-.36-.07-.5-.36-.79s-.5.07-.58.29-.43.36-.86.36a10.1,10.1,0,0,0-4.54,1.44,27.79,27.79,0,0,0-4.68,3.17l-1.94,1.87C165.65,48.49,165.22,48.92,165.29,49.14Z"/><path class="cls-1" d="M218.79,45.18a3.56,3.56,0,0,1-.58,1.15c-.58.94-5.62,4.18-6.19,5.11-.94,1.23-2.09,1.3-3.46,1.3a1.06,1.06,0,0,1-1.08-.58c-.07-.43-.29-.65-.36-1-.72-1.36-1.08-1.94-.65-3.52a.48.48,0,0,0-.57-.36c-.72.36-1.52.57-2.16.93-3.1,2-6.2,3.68-8.86,6-.36.29-.86.58-1.3.87s-.86.72-1.29,1.15a10.61,10.61,0,0,0-2.45,2.66,41,41,0,0,0-3.39,4.25c-.36.79-1,1.15-1.29,1.8-.29.5-.51.58-.94.36s-.5-.14-.57-.22c-.36-.57-.8-.93-1.08-1.44a6.07,6.07,0,0,1,0-1.65,4.33,4.33,0,0,1,.57-1c1.15-2.09,2.31-4.1,3.53-6.41,1.44-2.45,2.81-5.11,4.11-7.7a23.48,23.48,0,0,0,1.65-3.53,1.59,1.59,0,0,1,2.31-.65l1.15.65c.21.36.43.86.14,1.08-.93,1-1.15,2.37-1.8,3.38l-1.94,3.53c-.07,0-.07.29,0,.36h.21a54.64,54.64,0,0,1,9.44-6.26c1.8-.87,3.6-1.52,5.32-2.38a3,3,0,0,1,3.53.79l1.15,1.23a1.15,1.15,0,0,1-.21,1.51,3.09,3.09,0,0,0-.94,1.15c-.21.86-1,1.44-1.15,2.23,1.8-.36,7.35-4.61,9-5.25C218.79,44.82,218.79,45.11,218.79,45.18Z"/><path class="cls-1" d="M242.47,50.07v-.43a.86.86,0,0,0-.86.43.85.85,0,0,0-.58.15c-.57.21-.93.29-1.15.86-.29.15-.65.15-.79.36-.51,0-.79.22-1.08.79h.72v.29a14.15,14.15,0,0,0-2.81,2A11.28,11.28,0,0,0,233,56.41,28.62,28.62,0,0,0,230,58.14,47.75,47.75,0,0,1,224.54,61c-.93.29-1.8.65-2.73,1a9.52,9.52,0,0,1-5.69.14,1.38,1.38,0,0,1-.58-.21A12.65,12.65,0,0,1,214,59.44a7.5,7.5,0,0,1-.65-3.75c.22-1.15.51-2.23.79-3.31a26.11,26.11,0,0,1,4.4-7.35c.57-.72,1.44-1.44,2-2.16a2,2,0,0,1,2.31-.43,19.24,19.24,0,0,1,1.8,1.44c.21.36,0,.94-.29.94h-.22A1.94,1.94,0,0,0,222,46c-.72,1.23-1.44,2.09-2,3.1a19.62,19.62,0,0,0-2.88,5.11,5.53,5.53,0,0,1-.87,1.87,4.7,4.7,0,0,0-.14,2.67,3.37,3.37,0,0,0,2.66.29c.87-.29,1.8-.58,2.74-.94a15.75,15.75,0,0,0,2.66-1c.72-.5,1.73-.72,2.6-1.37a52.55,52.55,0,0,0,5.11-2.88c1.37-.72,2.59-1.65,4.1-2.37a3,3,0,0,0,1.23-.65A11.16,11.16,0,0,1,240.1,48c.86-.44,1.51-.87,2.3-1.37a8.38,8.38,0,0,1,2.52-1c.36.14-.36.79-.07,1.51A10.83,10.83,0,0,1,242.47,50.07ZM225.41,32.94a3.44,3.44,0,0,1,2.37-.72c.15,0,.29.21.43.21.37.51.94.87,1,1.52,0,.36.22.79-.07,1.22a3.8,3.8,0,0,1-1.73.79h-.64c-.22-.07-.65-.07-1.09-.21A1.57,1.57,0,0,1,225.41,32.94Zm17,15.69a12.84,12.84,0,0,0-3.1,1.3c-1.51.94-3,1.73-4.53,2.67-.29.14-.72.43-.72.57a3.9,3.9,0,0,0,1.94-.65c1.95-1.08,3.89-2.37,5.91-3.38C242,49.14,242.26,48.78,242.4,48.63Z"/><path class="cls-1" d="M275.52,21.49c-.22.07-.22.29,0,.43-.22.29-.22.94-.79.79-.36.43-.43.94-.79,1.15a25,25,0,0,1-2.31,2.45,1.38,1.38,0,0,1-1.22.43.8.8,0,0,1-.29.65,3,3,0,0,1-.72.36c.22.15.22.29.29.36s.14.22.14.29,0,.22-.14.22a17.3,17.3,0,0,0-2.45,2.23c-.07.29-.36.43-.5.72A6.25,6.25,0,0,0,264.36,34c-.07.28-.14.36-.29.36-.72.28-1,.93-1.65,1.36s-.8.87-1.3,1.23a29.35,29.35,0,0,0-2.16,2,72.84,72.84,0,0,1-6.7,5,13,13,0,0,1-5.33,2.6c-.36.07-.64.36-.93.43a3,3,0,0,1-.51.5c0,.94-.64,1.44-1,2.09-.51.58-.94,1.3-1.44,1.87a3,3,0,0,0-.65,1.73,5.81,5.81,0,0,0,1.15-.57,61.41,61.41,0,0,1,5.4-4.18,15,15,0,0,1,2.59-1.51,1.86,1.86,0,0,1,.94-.58c.29-.29.57-.79,1.22-.5a11.5,11.5,0,0,1,.87-.94,3.54,3.54,0,0,0,1.15-.5A8.49,8.49,0,0,0,259,42.87a4,4,0,0,1,2.45-1,5.11,5.11,0,0,1,.72-.29,5.64,5.64,0,0,1,3-.58,3.4,3.4,0,0,1,3.1,2.09.69.69,0,0,1,.14.5,8.57,8.57,0,0,1-1.08,2.67,4.64,4.64,0,0,1-1.58,2.37,20.33,20.33,0,0,1-3.46,2.6l-2.74,1.94c-.21.29-.28.36-.5.36-1.44.15-2.45,1.37-3.82,1.73A11.72,11.72,0,0,1,251,56.48c-.43,0-.65.22-.87.65a6.92,6.92,0,0,0-.28,1.3,39.51,39.51,0,0,1-.15,4.1c0,.29.15.36.29.58a.6.6,0,0,0,.58.43,12.28,12.28,0,0,0,5.83-.65,45.09,45.09,0,0,0,6.77-3.24c1-.43,1.87-.86,2.88-1.37,1.22-.72,2.59-1.36,3.74-2.16a22.46,22.46,0,0,1,4-2.16c1.66-.86,3.1-1.8,4.68-2.73.58-.22,1.08-.72,1.8-1.08a2.32,2.32,0,0,0,.87-.51A18.73,18.73,0,0,1,285,47.48a5,5,0,0,0,1.72-.93,1.77,1.77,0,0,1,1.95-.29c.36.07.72,0,.79.29.43.57,1.08.79,1.08,1.58v.29c-.07.07-.07.07-.29.07-1.51,0-2.59.86-3.81,1.58a3.23,3.23,0,0,1-1.16.08c-.14-.08-.43,0-.43.07-.29.86-.79,1-1.51,1.15v-.29c-.29,0-.72,0-.79.29h.07l-.07.07v-.07c-.29.07-.29.22,0,.29,0,.29,0,.57-.15.57-1,.29-1.65,1.3-2.52,1.73a28.75,28.75,0,0,0-3,1.3,5.42,5.42,0,0,0-1.66,1.15c-.93.58-1.8,1.15-2.8,1.66-1.16.65-2.38,1.37-3.53,2.16-.22.29-.51.36-.58.5-1.44.72-2.66,1.44-4,2.16a19.88,19.88,0,0,1-4.11,2,12.08,12.08,0,0,1-3.81,1.37,7.51,7.51,0,0,1-4.18.07,5.4,5.4,0,0,1-3.89-2.67,9.36,9.36,0,0,1-1.15-6.12,13.56,13.56,0,0,0,.51-2.3c.21-.14.21-.58.21-.86a1.42,1.42,0,0,1,0-1.3.57.57,0,0,1-.29-.22.14.14,0,0,0-.14.15,19,19,0,0,0-3,2.45c-1.52,1.22-3,2.66-4.47,4a6.48,6.48,0,0,1-1.08.86c-.36.22-.43.29-.43.72s-.14.65-.51.65c-.64.07-.79.36-.93.86s-.5.36-.79.29a1.7,1.7,0,0,1-.58-2.59,2.8,2.8,0,0,0,.29-1.44,4,4,0,0,1,.79-2.16,17.31,17.31,0,0,1,1-2.38c.21-.29.29-.79.79-1.08a5.42,5.42,0,0,1,1.51-2.45c0,.15,0,.29.29.15a.31.31,0,0,0-.29-.15c0-.57.36-.86.8-1.15.07-.58.07-1.15.72-1.44A1.94,1.94,0,0,1,242.4,47a2.24,2.24,0,0,1,1.15-1.87v.72c.36-.29.36-.36,0-.72.29-.51.29-1.16.79-1.52.43.36.43.36.65,0v-.21c-.14-.15-.22-.15-.22-.15a1.45,1.45,0,0,1,1-1.36c.15.07.15.07.15.21.07-.14.07-.14.07-.21h-.22a1,1,0,0,1,.72-1.08.24.24,0,0,0-.14-.08h.14v.08c.07.21.07.21.43-.08s.22-.43.29-.86l.22-.07a.22.22,0,0,0-.22-.22c0-.21-.07-.57.29-.65.22.29.22.29.43,0h-.43c0-.36.14-.5.43-.5-.21-.43.22-.65.72-1,.22.36.29.36.29,0h-.29a1.42,1.42,0,0,1,1.08-1.51c.15.14.29.14.36,0h-.21a.4.4,0,0,1,.21-.65v.65a.68.68,0,0,0,.36-.65v-.07c.15-.07.29-.36.51-.43h-.51a2.75,2.75,0,0,1,1.15-1.44v.86c.29-.21.29-.5.29-.86h-.29c.29-.72.65-1.51,1.44-1.73.08.22.22.22.44,0h-.44c0-.43,0-.72.44-.86v.86a1.47,1.47,0,0,0,.43-.86h-.43c.14-.29.21-.58.43-.65,1.73-2.31,3.6-4.32,5.33-6.41a41.76,41.76,0,0,1,7-6.77,23.72,23.72,0,0,1,5.69-4,17.84,17.84,0,0,1,5-2.09,1.36,1.36,0,0,1,1-.21,3.08,3.08,0,0,0,1.36.21,3.76,3.76,0,0,1,3,1.23,1.43,1.43,0,0,1,.14,1.51,9.14,9.14,0,0,0-1.08,1.8,15.34,15.34,0,0,0-2.81,3.24,2.9,2.9,0,0,1-1,1.08A9.92,9.92,0,0,0,276,21.06v.14C275.88,21.2,275.81,21.27,275.52,21.49Zm-34.92,31c-.58.08-.65.51-.65.94-.14.07-.14.29-.14.5h.28a1.07,1.07,0,0,1,.29-.79A1.72,1.72,0,0,0,240.6,52.52Zm.93-1.29c.29-.36.36-1.08,1.08-.72l.15-.08-.36-.57c-.15-.29-.29,0-.43,0a5.25,5.25,0,0,0-1.37,2.66H241A5.2,5.2,0,0,1,241.53,51.23Zm-.28,1.37c-.22,0-.22,0-.29-.08C241,52.6,241,52.88,241.25,52.6Zm1.51-3.82c.29-.29.57-.36.65-.65s.21-.29.43-.36v-.65C243.05,47.34,243,48,242.76,48.78Zm4.46-6.91h.29V41C247.22,41.07,247.22,41.58,247.22,41.87Zm2.38,10.29a3,3,0,0,1,2,.94c.29.36.29.86.65.86.43-.21.79-.28,1-.43.43-.07.79-.5,1.22-.65a7.58,7.58,0,0,0,2.31-1,45.28,45.28,0,0,0,5.62-4.4,7.45,7.45,0,0,0,2.73-3.89c.15-.14,0-.21,0-.5h-.36c-1.37.5-2.66,1.15-4,1.51a2.76,2.76,0,0,1-1,.51c-1.58.93-2.95,1.87-4.54,2.73a20.31,20.31,0,0,0-2.73,1.73c-.94.58-1.87,1.3-2.74,1.8a1.6,1.6,0,0,0-.86.79Zm-.36-13.75c-.29.14-.22.5-.22.86C249.24,39,249.53,38.91,249.24,38.41Zm7.41-7.13c0,.36-.21.58-.5.87-.72.79-1.66,1.22-1.87,2.44a4.21,4.21,0,0,1-.58.87,4,4,0,0,0-1.22,1.73A11,11,0,0,1,251,38.91a.68.68,0,0,0-.07.36,4.49,4.49,0,0,1-1.37,1.8,1,1,0,0,0,0,.65c.14,0,.43,0,.5-.14.51-.29,1.15-.79,1.66-1.15,4-2.88,8-6.12,11.66-9.29,2.31-1.87,4.32-3.75,6.41-5.76.29-.22-.57-.22-.21-.58.57-.58,1.15-1,1.65-1.51l.65-.65,3.31-3.38a1.1,1.1,0,0,1,.07.28c.15,0,.15-.07.22-.28h-.29c0-.08.07-.36.29-.36s.36-.29.5-.29v.29c.08,0,.29-.15.29-.29H276c0-.22.08-.36.36-.51,0-.07.08-.14.22-.14.14-.86.72-1.22,1.22-1.73v.87l.51-.36v-.22c-.22,0-.29-.29-.51-.29.22-.21.29-.57.72-.65,0-.14.22-.21.44-.43.07-.21.07-.5.36-.65a6.29,6.29,0,0,1,1.15-1.58c.07-.5.07-.86-.22-1.08a1.52,1.52,0,0,0-1.94.07A6.06,6.06,0,0,1,276.6,13a31.71,31.71,0,0,1-2.88,1.51c-1.51.87-3.31,1.44-4.46,2.88a4.36,4.36,0,0,1-1.66,1.16,8.84,8.84,0,0,1-1.51,1.22c-1.23,1.3-2.67,2.38-3.31,3.89-.15.14-.51.21-.58.36a4.69,4.69,0,0,1-.79.57c-.07.22-.07.58-.29.8a8.56,8.56,0,0,1-.94,1.44,19.3,19.3,0,0,1-2,2.08A9.65,9.65,0,0,0,256.65,31.28Zm-6.19,5.62a1.2,1.2,0,0,0,1.15-1.23A1.81,1.81,0,0,0,250.46,36.9Zm3.75-5.11c.72,0,.72,0,.72-.65A1.27,1.27,0,0,0,254.21,31.79Zm9.5.43a3.4,3.4,0,0,0-1.58,1.51A3.45,3.45,0,0,0,263.71,32.22Zm1.59-1.08c-.44,0-.65,0-.72.43C264.86,31.57,265.15,31.57,265.3,31.14Zm22.39,16.63H287c-1.65.86-3.24,1.58-4.89,2.38-1.08.72-2.38,1.29-3.61,2a25.43,25.43,0,0,1-2.44,1l-2.38,1.37c-.5.43-1.22.65-1.73,1-1.58.93-3.09,1.87-4.68,2.73a10.26,10.26,0,0,0-2.66,1.95h.65c.64-.43,1.36-.65,1.94-1,2.16-1.15,4.39-2.59,6.55-3.74,1.3-.58,2.31-1.3,3.6-1.95,2.59-1.58,5.26-3,8-4.39.64-.22,1.15-.51,1.8-.72C287.4,48.27,287.69,48.13,287.69,47.77ZM268.18,28.62c-.58,0-.87.21-1,.57A1,1,0,0,0,268.18,28.62ZM276,21.49V21.2C276.31,21.2,276.31,21.27,276,21.49Zm3.32-5.55c.07-.07.07-.28.21-.28v-.22c0-.43,0-.43-.29-.29s-.21.22-.28.22c0,.21-.15.29-.44.29C278.76,16,279,15.94,279.34,15.94Z"/><path class="cls-1" d="M74.46,144.68v-.57c-.28.29-.28.29,0,.57,0,.36.08.72-.43.94a.6.6,0,0,0,0,.5c.22.36.22.65-.29.87s-.36.72-.36,1.08c-.14.14-.28.21-.28.36a12.47,12.47,0,0,1-.22,1.29c-.14.36-.14.8-.29,1.16a2.7,2.7,0,0,0-.43,1.8c-.36.21-.22.72-.36.93.07.87-.36,1.66-.36,2.45a16,16,0,0,1-.5,2.52l-.15,1.94a2,2,0,0,1-.14.94c-.15.5.21,1,.14,1.37a3.53,3.53,0,0,0-.29,1.44.71.71,0,0,1,.08.36c.07.22.21.43.07.58-.29.72.14,1.44.21,2,.08.15,0,.22,0,.29s-.28,0-.28-.07a5.06,5.06,0,0,1-1.52-3.39,16.49,16.49,0,0,1-.28-5,5.12,5.12,0,0,1,.21-1.8,2,2,0,0,0,.07-.64c-.07-1.08.29-2.16.29-3.39.15-.79.43-1.44.65-2.23a39.37,39.37,0,0,1,1.58-6c.65-2.16,1.37-4.1,2.09-6.12a2.35,2.35,0,0,1,.22-.79c.29-.79.5-1.51.86-2.3.51-1.08.87-2.16,1.3-3.24l1.22-2.74a17.94,17.94,0,0,1,1.15-2.66,16.19,16.19,0,0,0,.94-2.09,11.9,11.9,0,0,1,1.37-2.74c.21-.14.21-.36.29-.57.43-.87.79-1.8,1.22-2.6l2.09-3.67c.5-1,1-2,1.51-2.88l2.38-4.39c.21-.29.28-.58.5-.94,0-.07-.14-.29-.22-.29s-.28,0-.43,0a1.85,1.85,0,0,1-.28.51c-.29.29-.51.72-.8,1l-.79,1.29a27.53,27.53,0,0,1-1.65,2.31,22,22,0,0,0-1.45,2.16A7.08,7.08,0,0,1,82,116a3.09,3.09,0,0,0-.43.58,9.56,9.56,0,0,1-1.3,2A22.31,22.31,0,0,0,78.71,121c-.29.58-.79,1-1.08,1.59A28.56,28.56,0,0,1,75,126.9a19.9,19.9,0,0,1-1.87,3.17c-.51.5-.51,1.22-1,1.72a10.45,10.45,0,0,0-.72,1.16c-.36.79-.94,1.51-1.37,2.3l-.86,1.51-1.3,2.31c-.14.14-2.09,3.24-2.45,3.6,0,.21-.07.21-.21.29a4.7,4.7,0,0,0-1,2.08c.29.36.29.65-.07.87,0,0-.15.07-.15,0a.07.07,0,0,1-.07-.07l.29-.8c-.22.08-.51.15-.51.36a7.24,7.24,0,0,1-1.08,2.31c-.72,1.37-1.58,2.59-2.3,3.89s-1.51,2.3-2.09,3.38c-.29.5-1,.86-1,1.51a.75.75,0,0,1-.36.15,1.25,1.25,0,0,1-1.51-.8c-.07-.14-.07-.28-.21-.36s-.29-.14-.36.08a.2.2,0,0,1-.29.14c-.36-.5-.65-.94-.43-1.51a5.25,5.25,0,0,0,.07-1.08,16.13,16.13,0,0,1,.5-3.75,14.83,14.83,0,0,0,.29-1.87l1-5.18.93-4.4c.36-1.94,1-3.88,1.3-5.83a24.43,24.43,0,0,1,1.08-5.18,8.76,8.76,0,0,0,.29-2c.72-2.23,1.22-4.75,1.8-7s1.08-4.68,1.58-7.06c.29-1.51.58-3.1.94-4.61a2.27,2.27,0,0,0,.07-.79A15.57,15.57,0,0,0,62.37,108c-.44.86-1.23,1.58-1.73,2.38-.51.21-.51.79-1,1.22a1.38,1.38,0,0,0-.58,1.15,1.25,1.25,0,0,1-.5.58c-.07.21-.29.36-.36.65-.22.86-1,1.51-1.44,2.37a12.72,12.72,0,0,1-1.3,2.38c-.28.65-.79,1.08-.86,1.8-.07.22-.07.29-.22.43a10.79,10.79,0,0,0-1.65,3.1c-.43.65-.79,1.37-1.23,2.09a6,6,0,0,0-.72,1.29c0,.36-.5.58-.36.94s-.43.5-.5.86c-.43,1.08-1.22,1.87-1.51,3a2.78,2.78,0,0,1-.79,1.8c-.44.28-.51.93-.8,1.22s-.28.86-.57,1.22a18.59,18.59,0,0,0-1.44,2.67c-.29.57-.79,1.08-1.15,1.65s-.65.94-.8,1.3c-.36.51-.43.94-.93,1.23-.07,0-.22.21-.22.28a7.41,7.41,0,0,1-1.37,2.6,25.05,25.05,0,0,1-1.58,2.08,27.33,27.33,0,0,0-1.87,2.38,9,9,0,0,1-2.45,2.23l-1.15.79A7.29,7.29,0,0,1,29.6,155a2.55,2.55,0,0,0-.72.07,1.43,1.43,0,0,1-1.51-.29c-.21-.21-.21-.36,0-.5a1.86,1.86,0,0,1,.79-.5,21.14,21.14,0,0,0,2.74-.94c.29-.36,1.94-1.66,2.23-1.94l1.15-1.3A8.48,8.48,0,0,0,36,147.42c1.3-1.73,2.59-3.38,3.82-5.11.57-.87,1.08-1.8,1.58-2.67.44-.57.8-1.22,1.3-1.8H43a2.69,2.69,0,0,1-.15.79,1.58,1.58,0,0,1,.51-.21v-.58h-.22c-.14-.07-.14-.21-.21-.29s0-.21.21-.28h.22c0,.14.07.36.07.57h.22v.51a.45.45,0,0,0,.28-.51h-.28v-.57h-.22c0-.15-.07-.22,0-.22s0-.22.07-.29.15.15.15.29v.22h.28v.57c.51-.21.58-.57.8-1a.35.35,0,0,0-.22-.07.52.52,0,0,0-.22-.21c.36-.51.44-1.3,1-1.59,0-.29.15-.5.15-.79.28-.14.14-.43.28-.65.29-.14.51-.5.29-.65-.21-.43-.29-.43.22-.5a.62.62,0,0,0,.36-.29,2.16,2.16,0,0,0,.5-1.15,2.38,2.38,0,0,0,1-1.37,23.13,23.13,0,0,1,1.51-2.66.89.89,0,0,1,.29-.43l3.46-6.7.64-1.15c.08-.22.29-.29.51-.51v.8a2.65,2.65,0,0,0,.86-1.59l-.29.29c-.21.22-.28.5-.57.5a1.63,1.63,0,0,0,.07-.5l1.58-2.81a.89.89,0,0,1,.58-.65,3.77,3.77,0,0,1-.14.79,5.08,5.08,0,0,1-.44.87c-.21.07-.21.43-.28.57a.73.73,0,0,0-.22.65c.22-.14.22-.43.29-.65.21-.07.21-.28.29-.57.14,0,.21-.07.36-.22a7.21,7.21,0,0,0,.79-1.8l-.65.36c0-.14,0-.36.14-.43a21.62,21.62,0,0,1,1.37-2.38s.07,0,.22-.14v.65c.36-.22.57-.43.57-.79a1.7,1.7,0,0,1-.57.14c.07-.14,0-.36.07-.43a10.43,10.43,0,0,1,1.51-2.45.74.74,0,0,0,.29-.86c0-.15.29-.29.43-.44a.52.52,0,0,0,.29-.57,1.23,1.23,0,0,0,.58-.87c.21-.14.21-.36.28-.64-.28-.08-.36-.29-.14-.51a3.23,3.23,0,0,0,.43-.29c.15.22.15.22.22,0h-.22l.22-.21v.21c.29-.07.29-.21.14-.28a3,3,0,0,1,.65-2l.72-1.15A2.68,2.68,0,0,0,64,98.46a1.14,1.14,0,0,0-.79-1c-.5-.07-.5-.43-.36-.87a.62.62,0,0,1,.51-.43H64c.22,0,.44.22.65.22a1.94,1.94,0,0,1,1.58.43,5.7,5.7,0,0,1,1.66,2.66,4.69,4.69,0,0,1,.22,1.3c0,.5-.07.94-.07,1.37a10,10,0,0,1-.72,3.81c-.29,1-.29,2.09-.58,3.1-.14.43-.14.79-.22,1.08-.29.94-.57,1.87-.79,2.88a5.78,5.78,0,0,1-.58,2.74v.14a6.36,6.36,0,0,0,.15,1.22c-.58.08-.5.58-.65,1a10.33,10.33,0,0,1-.43,1.51,9.54,9.54,0,0,1-.58,2.31,16.56,16.56,0,0,0-.43,1.87,10.16,10.16,0,0,1-.58,2.59c0,.08-.07.22-.07.29a15.22,15.22,0,0,1-.5,2.59,6.11,6.11,0,0,0-.51,2.52c0,.15-.21.36-.28.44a1.65,1.65,0,0,0-.15,1.15c0,.14.15.36,0,.5a3.38,3.38,0,0,0-.57,1.87,2.89,2.89,0,0,1-.58,1.52,2.45,2.45,0,0,1,.07-1.23,2.26,2.26,0,0,0,.07-.72.22.22,0,0,0-.07-.14l-.07.07a1.12,1.12,0,0,1-.43.72c-.07,0-.07.29-.22.5.22,0,.29.15.29.36s.14.29.36.44c0,.07.07.28.07.36a5,5,0,0,1-.29,1.44c-.14.28.08.64-.28.93-.44-.29-.65.44-1,.22-.22-.07-.22.22-.22.29a3.32,3.32,0,0,0,.43,1.94c.15-.72.29-1.22.36-1.8a.26.26,0,0,0,.22-.14.71.71,0,0,1,.07.21,3.1,3.1,0,0,1-.07.8c-.29.72,0,1.51-.58,2.23a.71.71,0,0,1-.21.07v-.5c0-.22-.15-.29-.22-.29s.07.5-.36.36l-.14-.07v.86H58c.22-.07.29-.29.51-.36a12.17,12.17,0,0,1-.29,3.17c0,.14-.14.14-.22.21v1.23c0,.79,0,.79-.93.86v.51c.14.21-.07.43.21.43a.91.91,0,0,0,.15-.43c.07-.29.14-.29.5,0,0,.07-.14.07-.14.21s0,.22,0,.22l.14-.15v-.28a1.26,1.26,0,0,0,.79-.8,11.14,11.14,0,0,1,1.8-2.66l.87-1.8a26.62,26.62,0,0,1,1.22-2.45,1,1,0,0,0,.36-.57c0-.51.58-.8.79-1.3-.14.22,1.59-3.1,2.38-3.24l.65-1.51.43-.65a19,19,0,0,0,2-3.53l.93-1.51,2-3.17c.5-.94,1-1.73,1.51-2.52a24.41,24.41,0,0,1,1.3-2.3c.79-1.16,1.58-2.38,2.3-3.6.58-.87.94-1.88,1.59-2.74.36-.72.86-1.3,1.29-2l1.15-1.8c1.16-1.58,2-3.31,3.25-4.75.57-.94,1.15-1.8,1.65-2.74s.79-1.51,1.22-2.16a5.13,5.13,0,0,0,.65-.79c.22-.21.43-.29.65-.14s.65-.07,1,.14a.88.88,0,0,0,.65.29c.29.36.93.36,1.29.5a5.16,5.16,0,0,1,1.8.8.5.5,0,0,1,.29.79.43.43,0,0,0-.07.29,3.6,3.6,0,0,1-.58,3.16c-.64,1-1.22,2.09-1.8,3.1l-1,1.58c-.08.22-.44.29-.44.51,0,.43-.5.65-.36,1.08a.22.22,0,0,1-.21.21c-.29,0-.29.22-.36.51s-.44.29-.65.57a13,13,0,0,1-1,2c-.29.5-.79.79-.94,1.3-.14.28-.43.5-.21.79-.15.5-.15,1.08-.79,1.37a.58.58,0,0,0-.22.43,2.78,2.78,0,0,1-.72,1.37,3.53,3.53,0,0,0-.36.93c-.14.07.07.15.22.29a3.74,3.74,0,0,0-1.16,1.44.56.56,0,0,1-.64.5.24.24,0,0,0,0,.44c.36.36,0,.72,0,1.08H82.1a.92.92,0,0,1-.15-.22h-.21a.33.33,0,0,1-.08.22c.15.28.29.5.08.79s-.29.5-.29.79c-.15.29-.43.22-.65.22-.07,0-.14.07-.29.07,0,.21-.07.5.29.5a.14.14,0,0,1,.14.15c0,.07,0,.21-.14.21s-.14.07-.36.07c-.07.08-.07.22-.22.29.15.07.22.07.22.22a.71.71,0,0,1-.07.21s-.15-.14-.15-.21,0-.15,0-.22c-.21,0-.28.07-.28.29v.5c.28.29.28.44.07.51s-.29.07-.36.07c-.22.14-.22.22-.15.36.22.14.15.5,0,.65s-.79.21-1.29-.07c-.43.21-.29.5-.29.79.22.07.29.21.5.29v.57c.29,0,.44.36.29.51a9,9,0,0,1-.5,1.22h.21c.15.07.15.07.15.22,0,0,0,.07-.15.07h-.21v-.29c-.29-.07-.36-.29-.36-.58-.22,0-.43,0-.51.29a.54.54,0,0,1,.22.65.94.94,0,0,1-.5.43V136c-.44-.43-.44-.43-.58.07-.36.58-.5,1.3-1.15,1.8v-.72c.43-.86.72-1.8,1.15-2.59.65-1.58,1.37-3.1,1.94-4.68a21.58,21.58,0,0,1,2-4.25l.58-1.22c.28-.58.5-1.3.79-1.87a6.38,6.38,0,0,0,.79-1.59,1.44,1.44,0,0,0,.14-.79.53.53,0,0,0-.28.29,2.15,2.15,0,0,0-.51,1c-.5,1.08-1.15,2.16-1.73,3.24-.79,1.58-1.51,3.24-2.3,4.89-.36.79-.79,1.73-1.08,2.59-.5,1.37-1.08,2.67-1.66,4.11a11.56,11.56,0,0,0-1,2.81c-.15.64-.51,1.29-.72,1.94-.58,1.59-1.23,3.31-1.66,5-.14,0-.14.14-.14.22l-1.08,4.32c-.22.79-.29,1.58-.51,2.37a23.41,23.41,0,0,0-.79,5.4c0,.29.07.51,0,.65a8.77,8.77,0,0,0-.22,2.74c.44-.15.15-.65.58-.72,0,.07,0,.21.14.07s-.14,0-.14-.07c0-.22.22-.44.22-.51-.29-.36.21-.86-.22-1.29,0-.08.14-.29.14-.36.58.14.36-.36.36-.51.15-.65-.14-1.15-.14-1.65l.07-.08a.07.07,0,0,1,.07.08c.15,0,.22.21.22.21.22-.07.29-.57.14-.79,0-.07-.21-.22-.21-.29s.21-.07.29-.07h.07c0-.5.5-1-.07-1.51a1.11,1.11,0,0,1,0-.72c0-.07.07-.22.07-.07.29.36.29.36.43-.15a7.69,7.69,0,0,0,.29-1.37c.07,0,.21.08.29.08.28-.08.21-.29.21-.44a6.26,6.26,0,0,0-.43-1.22,2.77,2.77,0,0,1-.07-.79c0-.15.21-.22.29-.22s.14.07.21.22h.29v-.79h-.07l-.43.21c0-.21-.08-.36,0-.43a4.28,4.28,0,0,1,.79-2.09v1.37c.43-.07.65-.14.65-.36-.22-.5,0-1.08,0-1.58h-.44a1.13,1.13,0,0,1-.07-.44c-.14-.07,0-.21,0-.28A39.78,39.78,0,0,0,74,140.65l1.15-2.74a.23.23,0,0,0,.15-.07l-.15.87c0,.21-.14.43,0,.64s.15.15.29.08.29-.08.29-.22c0-.36.07-.58.5-.65s.51-.65.51-1c-.22-.14-.29-.21-.22-.43a2.92,2.92,0,0,1,.22-.79l.29-.22v.44c.07.5.21.21.28,0s.29-.08.44-.08.14.44.07.44c-.51.43-.58,1.15-.94,1.65a1.39,1.39,0,0,1-.57.51c-.08.07-.08.28-.08.43s.29.21.22.43a.88.88,0,0,0-.36.22h-.5c0,.29.14.57-.29.79a1.06,1.06,0,0,0-.07-.43c-.08-.29-.08-.36.36-.36-.44-.44-.58-.44-.87,0a2.54,2.54,0,0,0-.29.79c.29.07.29.36.29.58.07-.08.22-.08.29-.22a.55.55,0,0,0,.29-.29,1.7,1.7,0,0,0,.14.79c.07.44.07.44-.43.65-.22.07-.22.15-.29.36v.43a.4.4,0,0,1,.29.08l.14.07c-.14,0-.21.14-.21,0-.15,0-.15-.07-.22-.15h-.29a2.41,2.41,0,0,1,.22-1.22c.07-.07.07-.29.07-.5-.29-.08-.29-.29-.29-.51-.07.15-.21.22-.21.29a14,14,0,0,0-.36,1.58,2.6,2.6,0,0,0-.22,1.23l.79-.79v.79h.29C74.75,144.32,74.75,144.61,74.46,144.68Zm-32.25-4.17c0-.07-.08-.15-.08-.29-.07.14-.07.29-.21.43s.14.07.21.29C42.13,140.72,42.21,140.65,42.21,140.51Zm.64-1.8c-.21.14-.43.14-.43.36-.21.14.22.14.22.36a.86.86,0,0,1-.15.5l.15.07c.07,0,.07-.07.21-.07C43.21,139.5,43,139.14,42.85,138.71Zm.8-.29h-.22v.29c.07,0,.22,0,.22-.08Zm.28-1.15c.08-.15.08-.15.08-.22C44.22,137.27,44,137.27,43.93,137.27Zm1.08-3.1v.14C44.8,134.17,45,134.17,45,134.17Zm.29,0c0-.14-.07-.14-.21-.14v-.51c0-.07.21-.14.36-.14l.14.14C45.3,133.67,45.3,133.88,45.3,134.17Zm.29.79h-.14a.8.8,0,0,0,.07.22A.8.8,0,0,0,45.59,135Zm.14-.21V135C45.81,135,45.88,135,45.73,134.75Zm.8-1.23c-.15,0-.22,0-.15.22C46.38,133.67,46.38,133.67,46.53,133.52Zm.28-.57c-.28.07-.28.28-.28.57C46.81,133.45,46.81,133.23,46.81,133Zm.29-.51a.45.45,0,0,0-.29.51C47.1,132.87,47.1,132.66,47.1,132.44ZM47,130.93l-.14-.07C47,130.79,47,130.86,47,130.93Zm.29.94c-.22.07-.22.28-.22.5C47.39,132.37,47.39,132.08,47.32,131.87Zm.14,0a.62.62,0,0,0,.15-.29Zm.43-.94c-.21.14-.21.36-.21.65A.46.46,0,0,0,47.89,130.93Zm.22-.07c-.07,0-.07,0-.07.07Zm.29-.58h-.07l.07.07Zm.29-.65h-.08l.08.15Zm.43-.86c-.15,0-.22,0-.22.07v.36c.07-.14.07-.14.07-.21S49.12,128.77,49.12,128.77Zm.21-.29a.51.51,0,0,0-.21.22C49.33,128.7,49.33,128.55,49.33,128.48Zm.29-.57c-.21.07-.21.28-.21.43A.28.28,0,0,0,49.62,127.91Zm.58-.94a.75.75,0,0,0-.51.79C50.13,127.69,50.2,127.4,50.2,127Zm.29-.58c-.29.08-.29.36-.29.58C50.49,126.9,50.49,126.68,50.49,126.39Zm.28-.5c-.28.07-.28.29-.28.5A.44.44,0,0,0,50.77,125.89Zm.29-.58a.38.38,0,0,0-.29.44A.38.38,0,0,0,51.06,125.31Zm.36-.64c-.36.14-.36.28-.36.64A.58.58,0,0,0,51.42,124.67Zm.51-.8a.71.71,0,0,0-.51.8C51.78,124.59,51.93,124.31,51.93,123.87Zm.28-.57c-.28.07-.21.29-.21.5C52.21,123.66,52.21,123.51,52.21,123.3Zm.29-.58c-.29.07-.29.29-.29.58A.58.58,0,0,0,52.5,122.72Zm.29-.65a.64.64,0,0,0-.29.65C52.79,122.58,52.79,122.36,52.79,122.07Zm.58-1.08a1.79,1.79,0,0,0-.58,1.08C53.37,121.93,53.37,121.5,53.37,121Zm.28-.57c-.28.07-.28.29-.28.57C53.65,120.92,53.58,120.63,53.65,120.42Zm.22-.65c-.29.14-.22.43-.22.65A.46.46,0,0,0,53.87,119.77Zm.65-.79a.7.7,0,0,0-.51.79C54.37,119.7,54.52,119.41,54.52,119Zm1.37,31.82.57-3.6c.29-1.22.43-2.3.72-3.45s.51-2.45.72-3.6c.36-2,.79-4,1.3-6,.36-1.44.57-2.81.93-4.18a17.85,17.85,0,0,0,.8-3.81,22,22,0,0,0,.64-2.52c.29-2,1-4,1.37-6,.29-1.87.79-3.82,1.23-5.76a2.06,2.06,0,0,1,.07-.65c-.07-.07-.07-.29-.07-.29-.29-.07-.22.22-.22.29-.22.79-.43,1.51-.57,2.23-.51,1.8-.73,3.67-1.3,5.4a.76.76,0,0,0-.15.58,6,6,0,0,1-.36,1.58,14.36,14.36,0,0,1-.5,2.16,11.42,11.42,0,0,0-.58,2.74c0,.22-.36.5-.36.72l-.5,1.66a3.94,3.94,0,0,1-.36,1.87c-.29.72-.22,1.44-.43,2.09a29.78,29.78,0,0,0-.79,3.31,7.07,7.07,0,0,1-.15,1.73,30.8,30.8,0,0,0-1.15,5.33c-.07.72-.36,1.29-.5,2a7.76,7.76,0,0,0-.36,1.8c.07.29-.15.58-.15.87-.14,1.29-.43,2.59-.65,3.88a18.44,18.44,0,0,0-.21,2c-.07.14,0,.36,0,.57s.43-.07.5-.43a1.74,1.74,0,0,0,.22-.79A6.43,6.43,0,0,1,55.89,150.8Zm.5,1.16v-.08l-.14.08Zm.07-1.23c-.07.07-.07.07-.07.15s-.07.07,0,.14a.24.24,0,0,0,.07-.14Zm.29-.72a3.15,3.15,0,0,0-.14-.5,2.23,2.23,0,0,1-.15,1.08c.15-.07.22-.07.29-.22Zm.14-2.3c0,.57-.14.86,0,1.22,0,.07.08.15.15.29A2.93,2.93,0,0,0,56.89,147.71ZM57.18,112v-.07h.07Zm.22,34.13c-.15.08-.22.08-.22.22v.14c.07,0,.07-.07.07-.14S57.4,146.2,57.4,146.12Zm0-32.33c.36-.07.5-.36.57-.79A.75.75,0,0,0,57.4,113.79Zm.5,33.41a4.78,4.78,0,0,0,0-1c0-.08-.14-.29-.21-.29s-.22.07-.29.21c.29.08.29.36.29.58S57.69,147.13,57.9,147.2Zm-.36.8a.24.24,0,0,0-.14.07v.65a.07.07,0,0,1,.07.07c0-.07.07-.07.07-.22Zm.65-3.1-.14-.07c-.15.07-.51.07-.58.36v.14a.07.07,0,0,0,.07.07C57.76,145.4,58.19,145.12,58.19,144.9Zm.07-32.48c.22-.07.22-.43.22-.57-.29.07-.22.36-.29.57s-.22.29-.22.51V113C58.19,112.86,58.19,112.64,58.26,112.42Zm-.07,29.82h-.14v.07Zm-.14.57c0,.07.14.07.14.07S58.19,142.74,58.05,142.81Zm.72-3.31a.24.24,0,0,1-.08-.15l-.14.08v.28A.35.35,0,0,0,58.77,139.5Zm-.08,1.29s.08,0,.08.15a.3.3,0,0,0-.08.22c0-.15-.14-.15-.14-.22Zm.65-2.08h-.65a.49.49,0,0,1,.08.21c.07.15.21.15.28.22.22.07.22-.07.29-.22Zm0-2.24a2.15,2.15,0,0,0-.5,1.95A3.1,3.1,0,0,0,59.34,136.47Zm0-26.06a.94.94,0,0,0-.29.5C59.34,110.84,59.27,110.62,59.34,110.41Zm.15-2.16c0-.07-.15-.22,0-.22a.6.6,0,0,1,.14-.29.33.33,0,0,1,.22.08c0,.14-.08.21-.22.36S59.56,108.25,59.49,108.25Zm.64,26.06c-.36-.07-.14-.43-.14-.79-.5.22-.22.51-.36.79s.22.22.36.36Zm-.28-24.77c-.08,0-.22.08-.08.22S59.85,109.62,59.85,109.54Zm.64-.79c-.36.07-.5.36-.5.79A1,1,0,0,0,60.49,108.75Zm0,24.48c-.14-.07-.21-.07-.21-.21s-.15-.15-.22-.15L60,133v.57A.48.48,0,0,0,60.49,133.23Zm.15-1a2.3,2.3,0,0,0-.15-.65c-.36.21-.36.36-.21.65a1.83,1.83,0,0,1,.29,1C60.85,133,60.78,132.66,60.64,132.23Zm-.29,2a.07.07,0,0,0-.07.07C60.35,134.31,60.49,134.31,60.35,134.24Zm.72-3.89c-.5-.07-.5-.07-.5.44-.08.14,0,.5,0,.79.07-.15.21-.22.21-.43A3.68,3.68,0,0,1,61.07,130.35ZM60.78,107a.37.37,0,0,1-.21-.5.23.23,0,0,1,.21-.22c.07-.07.15.15.29.22C60.78,106.52,60.78,106.74,60.78,107Zm-.14,1.59a.07.07,0,0,0-.07.07A.07.07,0,0,0,60.64,108.54Zm.29-.51V108l-.08.07Zm0,21.75v-.15h-.08Zm.36-2.09c-.15-.14-.15.07-.15.29s-.07.29.29.36c.14-.07.36-.15.36-.29C61.79,127.76,61.43,127.76,61.29,127.69Zm.07-20.38c-.07,0-.29,0-.07.15C61.29,107.46,61.29,107.31,61.36,107.31Zm-.07-1.65v.07C61.14,105.66,61.21,105.66,61.29,105.66Zm.14-.29a.35.35,0,0,1,.22.21h-.29C61.43,105.44,61.43,105.44,61.43,105.37Zm.22,1.37a.53.53,0,0,0-.29.5C61.65,107.17,61.65,107,61.65,106.74Zm.14,19.73h-.36c.14.14.14.21.22.21A.26.26,0,0,0,61.79,126.47Zm-.36.72.14-.15h-.14Zm.36-20.6c-.07.07-.07.07-.14.07h.14Zm.14,19.08a.42.42,0,0,1-.07-.28h-.07V126a.07.07,0,0,0,.07-.07A.39.39,0,0,1,61.93,125.67Zm.15-20.81-.15.08h.15Zm.65.22c-.29.07-.36.29-.51.5s.15.08.15.08.07.07.07,0C62.65,105.58,62.73,105.22,62.73,105.08Zm-.29,40.54a.07.07,0,0,0-.07.07c-.15.15,0,.15,0,.22l.07-.07Zm.29-.58c-.29.08-.15.29-.15.44C62.73,145.4,62.73,145.19,62.73,145Zm.21-.5c-.07.07-.07.07-.07.14s-.14.15-.14.22a.31.31,0,0,0,.21-.07Zm0-39.68c-.07,0-.07.08-.07.08Zm0,22-.07-.15h.07Zm.44,16.7a.23.23,0,0,0-.22.22.61.61,0,0,0,.07.22v-.15C63.38,143.82,63.38,143.75,63.38,143.6Zm.28-.57c-.28.07-.28.29-.28.5A.44.44,0,0,0,63.66,143Zm-.21-2.38.07-.14h-.07Zm.21-37.08c-.14.07-.28.07-.14.21A.25.25,0,0,1,63.66,103.57Zm0,0c.07,0,.07,0,.07-.15Zm.22,39c-.15.08-.22.08-.22.22v.14c.07,0,.22,0,.22-.07Zm.07-4.89a.39.39,0,0,0,.07-.22c.15,0,.15.14.15.22l-.15.14Zm1.44,2.08c0,.08-1.3,2.53-1.3,2.6l.87-.87c.72-1.36,2.59-4.46,3-5.18,1.23-2.23,2.52-4.32,3.68-6.48a12.61,12.61,0,0,0,1.8-2.81L76,122.79c.93-1.8,2.16-3.38,3.09-5.18.43-.79,1.08-1.59,1.66-2.52a3.93,3.93,0,0,0,.93-1.8c-.14,0-.36.14-.36.21-1.29,2-2.59,3.82-3.74,5.69-.79,1.52-1.73,2.88-2.59,4.32a23.34,23.34,0,0,0-1.59,2.6,18.47,18.47,0,0,1-1.51,2.37c-.29.87-1.22,1.51-1.51,2.38a4.11,4.11,0,0,1-.5.93,10.82,10.82,0,0,0-.87,1.59,16.94,16.94,0,0,1-1.29,2.23l-.65.94a24,24,0,0,1-1.37,2.59v-1c0-.07-.07-.22-.07-.29l.21-.29c-.14,0-.21,0-.21.08a.84.84,0,0,0-.22.64Zm-1.15-29.95s.14.07.14.14a.24.24,0,0,1,.08-.14v-.5l-.08-.15a.14.14,0,0,1-.14.15Zm1,27.58h-.08l.08.07Zm0,3.17h-.08l.08.14Zm0,3.09v.15h-.08Zm2.3-5.47a.75.75,0,0,1-.36.29s0,.21.07.21.22,0,.22-.07S67.55,138.35,67.55,138.13Zm.65-1.22c-.65.21-.65.72-.5,1.22C68.2,137.91,68.2,137.41,68.2,136.91Zm.5-.15c-.14,0-.21-.14-.36-.21s-.07.07-.14.21v.15h.29A.73.73,0,0,1,68.7,136.76Zm.29-1-.14-.14a.66.66,0,0,1-.07.36.07.07,0,0,1,.07.07A.29.29,0,0,0,69,135.75Zm.29-.72c-.07,0-.07,0-.07.15Zm-.07,27.51a.07.07,0,0,0,.07-.07c0-.15,0-.22-.07-.22Zm.36-28a.26.26,0,0,1-.22.14V135c.15,0,.15-.14.22-.14Zm.21,30.53c0,.07-.14.07-.14.07s.07.15.14.22.08-.14.08-.22S69.78,165.13,69.78,165.06Zm.29-31.47a.89.89,0,0,1-.29.29l.08.15H70C70.07,134,70.07,133.81,70.07,133.59Zm.29-.21-.07.07C70.36,133.45,70.36,133.45,70.36,133.38Zm-.07,21.38h.07v.15Zm.57-2.3.08.14h-.08Zm.44-1.58c0,.28.07.64.07.93-.51-.21-.29-.65-.22-.93v-.08C71.3,150.8,71.3,150.8,71.3,150.88Zm.57-1.3a.58.58,0,0,1-.21.22c.07,0,.14.07.14.21l.07-.14Zm.29-19.44a.53.53,0,0,0-.22.5C72.16,130.57,72.16,130.35,72.16,130.14Zm-.22,20.52c0,.14.15.14.15.14a.35.35,0,0,1,.07-.21.07.07,0,0,1-.07-.07C72.09,150.59,71.94,150.66,71.94,150.66Zm.8-21.39a1,1,0,0,0-.58.8C72.66,130,72.74,129.63,72.74,129.27Zm-.58,19.45h.22c.07,0,.21.07.28.07s.08-.29.08-.36a3.09,3.09,0,0,0-.29-.65C72.09,148,72.23,148.43,72.16,148.72Zm.29,1.08c-.07-.08-.22-.22-.29-.22a.56.56,0,0,1,.07.29.14.14,0,0,0,.15.14A.31.31,0,0,1,72.45,149.8Zm-.22,2.88.15.14C72.16,153,72.23,152.82,72.23,152.68Zm.22-6.27a.25.25,0,0,0,.14-.21C72.74,146.41,72.59,146.34,72.45,146.41Zm.5-17.57c-.07,0-.07.15-.07.15a.28.28,0,0,0-.14.28c.14-.07.21-.07.21-.21Zm.43,15.84c-.43.36-.28.72-.28,1.16a.84.84,0,0,0,.43-.22,1.12,1.12,0,0,0,.14-1.51c-.29.07-.29.29-.29.57.08,0,.08.15.15.15C73.38,144.9,73.38,144.83,73.38,144.68Zm0,3.39c.08.14.08.14.15.14C73.38,148.43,73.38,148.21,73.38,148.07Zm.15-20.16-.07.07c-.08.07,0,.21,0,.29,0-.08.07-.08.07-.22S73.53,128,73.53,127.91Zm.21-.22a.07.07,0,0,1-.07.07h.07Zm.65-1.22-.14.14h.14Zm.29,19.44V146h-.14Zm.07-20c-.07,0-.21,0-.07.07Zm.29-.58a.38.38,0,0,0-.29.44A.38.38,0,0,0,75,125.31Zm0,19.88c-.07.14-.07.14-.07.21a.32.32,0,0,1-.22-.07c.07-.14.07-.14.22-.21ZM74.82,144l.15-.15C75,144,75,144,74.82,144ZM75,125.31c.14-.07.22,0,.14-.21A.87.87,0,0,0,75,125.31Zm1.3,12.6v.15l-.08-.15Zm.5-.57a.54.54,0,0,1-.07.21C76.91,137.55,77.06,137.55,76.84,137.34Zm.5-2.38a.44.44,0,0,1-.28-.5c-.29.36-.29.57,0,.86s.21,0,.28-.07Zm-.28-.65c.07,0,.28,0,.07-.14C77.13,134.24,77.13,134.31,77.06,134.31Zm.86-1.65c-.36.21-.14.72-.5,1l.14.07c.07.14.07,0,.22,0a.5.5,0,0,0,.36-.22c.07.36.21.22.28,0h-.21C78.06,133.23,77.85,133,77.92,132.66Zm0,2c.14,0,.22,0,.14-.21C77.92,134.53,77.92,134.53,77.92,134.67Zm.22.87c0,.07,0,.07-.08.21C77.92,135.54,78.06,135.54,78.14,135.54Zm1.08-3.89c-.08,0-.15-.07-.29-.07s-.22,0-.22-.15,0-.14.15-.14c.07-.22.28-.36.07-.5s-.36,0-.51.14-.21.5-.21.94h.86A1.48,1.48,0,0,0,79.22,131.65ZM78.71,133c-.07,0-.14,0-.14-.07a4.45,4.45,0,0,0,.07-.51c.29.22.72-.07.86.29v.14C79.43,133,78.93,133.16,78.71,133Zm.72-3.17c-.29-.07-.5,0-.57.29a.38.38,0,0,0,.28.21c.08,0,.22-.21.29-.28Zm-.21-.36c0-.14,0-.14.14-.22C79.22,129.27,79.07,129.27,79.22,129.49Zm.43-.79c-.29.07-.29.29-.29.57C79.65,129.2,79.65,129,79.65,128.7Zm.5-.36a.35.35,0,0,1-.21-.07c-.08-.08-.22,0-.29.07v.36C79.86,128.7,80.15,128.7,80.15,128.34Zm-.29,2.16s-.21,0,0,.07Zm.15-2.81a.14.14,0,0,0,.14-.14H80Zm.43-1c-.29.22-.22.58-.22.79C80.66,127.4,80.44,127,80.44,126.68Zm-.22,1.66h.22a.25.25,0,0,1-.07-.15A.15.15,0,0,1,80.22,128.34Zm.51-1.87c-.07,0-.07.14-.22.21C80.66,126.68,80.73,126.61,80.73,126.47Zm1.22-1.8c-.14,0-.21-.08-.29-.08s-.21,0-.36.08V125a3.72,3.72,0,0,0-.57,1.44c.29,0,.5,0,.57-.21l.36-.87A.61.61,0,0,0,82,124.67Zm-1,2.52V127l-.14.15Zm1.52-15a1.25,1.25,0,0,0-.8,1.08A1.25,1.25,0,0,0,82.46,112.14ZM82,123.87c-.14,0-.21,0-.21.15a.31.31,0,0,0,.21.07Zm0,.8c.29-.08.15-.29.29-.58.29-.29.29-.94.72-1.22a.53.53,0,0,1-.14-.29c0-.07,0-.29-.08-.36a4,4,0,0,0-.79,1.65c.07,0,.15.15.29.22H82ZM82.53,112a.87.87,0,0,1,.21-.14C82.53,111.85,82.53,111.92,82.53,112Zm3.31,2.52a8.72,8.72,0,0,0-.65.79c-.29.72-.79,1.3-1.08,1.88a13.09,13.09,0,0,1-1.08,2,1.5,1.5,0,0,0-.29.94c.51-.14.65-.51.87-.94a15.47,15.47,0,0,1,1-1.8c.43-.64.79-1.51,1.22-2.16A1.26,1.26,0,0,0,85.84,114.51ZM83,122.07v-.5c-.21.14-.21.36-.29.5ZM83,111.42l-.14.14c-.08.07,0,.14,0,.29,0-.15.14-.15.14-.22S83,111.56,83,111.42Zm.29,10.8H83.1S83,122.36,83.25,122.22Zm.07-.94a.5.5,0,0,1-.22.22h.22Zm.43-.21c0-.08-.14-.15-.21-.29l-.22.21v.29a.45.45,0,0,0,.29-.07Zm-.21.64c-.15-.14-.15-.14-.22-.14S83.32,121.79,83.54,121.71Zm.57-1.29H83.9c0,.07.14.07.14.21C84.11,120.49,84.11,120.49,84.11,120.42Zm0-.8c-.07,0-.21,0,0,.15Zm0-9.86-.07-.14v.14ZM84.4,119c-.29.14-.14.36-.14.5A.34.34,0,0,0,84.4,119Zm-.14,1.44s.07,0,.07-.15C84.33,120.27,84.26,120.27,84.26,120.42Zm0,2.59a.35.35,0,0,1,.07-.22C84.4,123,84.33,122.87,84.26,123Zm.43-4.61c-.14.07-.14.43-.14.58C84.83,118.91,84.69,118.62,84.69,118.4Zm.36,0c0-.07-.15-.07-.15-.21,0,.14-.07.14-.07.21Zm.29-.57v-.15h-.15Zm.21-.73h-.14l.14.08Zm0,.94c-.07-.07-.14-.07-.14-.14C85.41,118,85.41,118,85.55,118Zm.94.29.14-.14v.14Z"/><path class="cls-1" d="M112.77,136.47V136a.87.87,0,0,0-.87.43.82.82,0,0,0-.57.15c-.58.21-.94.29-1.16.86-.28.15-.64.15-.79.36-.5,0-.79.22-1.08.79H109v.29a14.44,14.44,0,0,0-2.81,2,11.45,11.45,0,0,0-2.95,1.87,29.73,29.73,0,0,0-3,1.73,48.43,48.43,0,0,1-5.47,2.88c-.94.29-1.8.65-2.74,1a9.52,9.52,0,0,1-5.69.14,1.38,1.38,0,0,1-.57-.21,12.22,12.22,0,0,1-1.52-2.52,7.39,7.39,0,0,1-.64-3.75c.21-1.15.5-2.23.79-3.31a26.32,26.32,0,0,1,4.39-7.35c.58-.72,1.44-1.44,2-2.16a2,2,0,0,1,2.3-.43,18,18,0,0,1,1.8,1.44c.22.36,0,.94-.29.94h-.21a1.94,1.94,0,0,0-2.16,1.22c-.72,1.23-1.44,2.09-2,3.1a20.21,20.21,0,0,0-2.88,5.11,5.32,5.32,0,0,1-.86,1.87,4.79,4.79,0,0,0-.15,2.67,3.39,3.39,0,0,0,2.67.29c.86-.29,1.8-.58,2.73-.94a15.84,15.84,0,0,0,2.67-1c.72-.5,1.72-.72,2.59-1.37a52.55,52.55,0,0,0,5.11-2.88c1.37-.72,2.59-1.65,4.11-2.37a3,3,0,0,0,1.22-.65,11.33,11.33,0,0,1,2.88-1.87c.86-.44,1.51-.87,2.3-1.37a8.38,8.38,0,0,1,2.52-1c.36.14-.36.79-.07,1.51A10.88,10.88,0,0,1,112.77,136.47ZM95.7,119.34a3.4,3.4,0,0,1,2.38-.72c.14,0,.28.21.43.21.36.51.94.87,1,1.52,0,.36.21.79-.07,1.22a3.85,3.85,0,0,1-1.73.79h-.65c-.22-.07-.65-.07-1.08-.21A1.58,1.58,0,0,1,95.7,119.34Zm17,15.69a12.78,12.78,0,0,0-3.09,1.3c-1.51.94-3,1.73-4.54,2.66-.29.15-.72.44-.72.58a3.94,3.94,0,0,0,2-.65c1.94-1.08,3.88-2.37,5.9-3.38C112.33,135.54,112.55,135.18,112.69,135Z"/><path class="cls-1" d="M164.18,106.81c-.22.5-.51,1-.72,1.58-.29.22-.29.72-.51,1a1.83,1.83,0,0,0-.57.94,1.75,1.75,0,0,0-.44.64,6.06,6.06,0,0,1-1.29,1.73c-.36.36-.51.87-.87,1.3-.14.07-.14.29-.36.36a17.44,17.44,0,0,1-1.44,1.8,1.67,1.67,0,0,0-.43.65c0,.14-.21.28-.29.36s-.43.28-.5.65-.43.28-.58.5-.5.65-.72,1.08a.35.35,0,0,0-.07.21c-.86.65-1.22,1.66-2,2.24a1.71,1.71,0,0,1-.73.5.77.77,0,0,0-.35.65,1.56,1.56,0,0,1-.22.5,4.85,4.85,0,0,0-.65.58,4.16,4.16,0,0,1-.43.58c-.36.14-.36.43-.51.64a11.3,11.3,0,0,0-.93.87c-.22.21-.22.5-.51.72a1.63,1.63,0,0,1-.5.29.56.56,0,0,1-.36.07c-.14-.07-.22.14-.14.21s.21.22.14.44c-.14,0-.22,0-.29.07a.63.63,0,0,0-.43.57.4.4,0,0,1-.29.44c-.43.21-.72.72-1.08.86a.23.23,0,0,0-.21.22,2.91,2.91,0,0,1-.72.79,6.39,6.39,0,0,0-1.23,1.58c0,.22-.14.22-.36.22a.25.25,0,0,1-.21.14,2.09,2.09,0,0,1-.8.65c-.21.22-.43.29-.43.65a.76.76,0,0,1-.36.65,2.33,2.33,0,0,1-.43.21c0,.43-.36.43-.58.72,0,.22-.21.36-.36.51a4.46,4.46,0,0,0-.86.79c-.07.07-.14.21-.29.21s-.07.08-.14.08a4.14,4.14,0,0,0-.94,1.87,3.8,3.8,0,0,1-.79,1.51h-.07c-.15.14-.15.22,0,.29a1.24,1.24,0,0,1,.07.5,3.14,3.14,0,0,1-.43,1,1.2,1.2,0,0,0-.07.72,1.46,1.46,0,0,1-.22.79c-.07.08-.07.08-.07.22a1.64,1.64,0,0,0-.29,1,3.77,3.77,0,0,1-.22,1.58,2.74,2.74,0,0,1-.28,1v.5a2.56,2.56,0,0,1-.22,1.3c.22.29-.07.5,0,.79.22.15,0,.51.07.65a2.47,2.47,0,0,0,0,.72.58.58,0,0,1,.15.5,2.7,2.7,0,0,0,.28.8.5.5,0,0,0,.51.28c.36.15.79.15,1.29.29a.56.56,0,0,0,.22-.07c.29-.07.58,0,.86-.22.51-.14.94-.14,1.44-.28s.87-.36,1.3-.58a5.1,5.1,0,0,0,1.08-.5.78.78,0,0,1,.5-.22,5.28,5.28,0,0,0,1.52-.79c.43-.29.93-.51,1.44-.87a3,3,0,0,1,.64-.36h.29c0,.22,0,.44-.29.51a.83.83,0,0,0-.5.21,4.24,4.24,0,0,1-.65.58,3.09,3.09,0,0,1-.5.36,29.56,29.56,0,0,0-2.67,1.37l-.07.07c.07.14.29.14.51.14s.28-.14.5-.21a12,12,0,0,0,1.3-.72.37.37,0,0,1,.28-.15c.36,0,.58-.36.87-.43s.5-.43.72-.57a.74.74,0,0,1,.5-.15c0,.22-.14.29-.21.43-.22.08-.36.29-.58.36a.82.82,0,0,0-.22.51.4.4,0,0,1-.43.29c-.14,0-.29.14-.36.36-.14.07-.21.28-.29.36-.14.28-.21.43-.5.43h-.14a.54.54,0,0,0-.36.14,1.87,1.87,0,0,1-.94,1,3.48,3.48,0,0,1-1.58.72c-.29,0-.58.22-.87.22a1.67,1.67,0,0,0-.79.21.66.66,0,0,1-.36.07,3.34,3.34,0,0,1-1.66-.28c-.21,0-.28-.15-.5-.15a6.93,6.93,0,0,1-1.73-.65A1.67,1.67,0,0,1,135,154a3.69,3.69,0,0,0-.43-.72,15.17,15.17,0,0,1-1.08-2.81.87.87,0,0,1-.14-.57v-2.52c.36-.58.21-1.23.36-1.8a3.29,3.29,0,0,0,.07-.36,1.29,1.29,0,0,0,.07-.51c.15-.28,0-.72.22-1s.14-.72.29-1v-.51c-.08-.07-.15,0-.29,0s-.36.08-.29.44a.53.53,0,0,1-.07.28,1,1,0,0,0-.43.51c-.51.36-.8.86-1.37,1.15a1.55,1.55,0,0,0-.65.5,3.27,3.27,0,0,1-1.3.94l-.29.29c-.28.57-.86.86-1.29,1.37-.22.21-.51.28-.79.5s-.29.43-.58.5a1.63,1.63,0,0,0-.65.51,6.66,6.66,0,0,1-1.8,1.37c-.57.36-1.08.64-1.65,1a1.6,1.6,0,0,1-.72.44,26.88,26.88,0,0,1-3.6,1.65s-.08,0-.22.15a2.24,2.24,0,0,0-1.15.21,4.41,4.41,0,0,0-1,.15.91.91,0,0,1-.5.14,1.79,1.79,0,0,0-1.08.22h-.22a1.39,1.39,0,0,0-.94-.22c-.43,0-.93-.29-1.36-.29a10.47,10.47,0,0,1-2.16-1.29,2.34,2.34,0,0,1-.87-1c-.14-.43-.43-.29-.57-.72s-.8-1.08-.8-1.8c0-.29-.07-.58-.07-.87a13.39,13.39,0,0,1,2.16-7.12v-.08a4,4,0,0,0,.72-1.73,4.53,4.53,0,0,0,.58-1.51,5.5,5.5,0,0,0,.57-1.29,1,1,0,0,1,.36-.65c.29-.36.29-.65.51-.94s.07-.57.14-.79a2.26,2.26,0,0,0,.43-.72.94.94,0,0,0,.36-.65,1.39,1.39,0,0,1,.44-.93,4.1,4.1,0,0,0,.72-1.16.59.59,0,0,1,.28-.43c.22-.21.08-.57.29-.79s.29-.5.51-.72a1.62,1.62,0,0,1,.43-.79,2.15,2.15,0,0,1,.36-.87.43.43,0,0,1,.43-.21v-.29c.29-.79.79-1.51,1.15-2.3.22-.44.51-.72.72-1.16a.61.61,0,0,0,.22-.07.46.46,0,0,1,.07-.29,6.62,6.62,0,0,1,.43-1c.15-.29.51-.51.58-.87s.43-.65.57-.93a2.2,2.2,0,0,0,.51-1v-.22c.14-.29.5-.43.5-.86s.43-.58.65-1a5.13,5.13,0,0,1,.65-.79,8.59,8.59,0,0,1,1-1.23c.07-.5.5-.65.72-1.08a12.33,12.33,0,0,0,.79-1.08c.29-.43.57-.72.79-1s.5-.72.72-1,.5-.72.79-1.08a1.23,1.23,0,0,1,.51-.58c.36-.43.79-.86,1.15-1.22s.43-.51.65-.72.28-.51.57-.72c.51-.44,1-.94,1.52-1.44.36-.22.57-.65,1-.94a11.69,11.69,0,0,0,.87-.86,1.57,1.57,0,0,1,.72-.51c.07-.14.29-.21.36-.29a20.58,20.58,0,0,1,2.73-2.16c.58-.36,1.08-.86,1.66-1.29.94-.58,1.94-1.08,2.81-1.66a2.48,2.48,0,0,0,.79-.5c.14,0,.22-.07.43-.22a3.52,3.52,0,0,0,1.59-.72,3,3,0,0,1,1.58-.36,3.48,3.48,0,0,1,1.44.36,2.24,2.24,0,0,0,.65.36,1.55,1.55,0,0,1,1,1.59,1.44,1.44,0,0,1,.21.5v.36c-.21.29-.07.72-.29,1a.82.82,0,0,1-.21.57.65.65,0,0,1-.07.36,7.38,7.38,0,0,0-.94,1.66c-.22.29-.36.65-.58.94a1,1,0,0,0-.5.86c0,.14-.07.22-.22.29-.28.5-.64,1-.86,1.51a.23.23,0,0,0-.22.22c-.43.07-.57.36-.79.72a7.27,7.27,0,0,1-.72.79c-.07.07.15.21,0,.29,0,.07-.21.21-.29.21a.47.47,0,0,0-.21.58c0,.07-.07.07-.22.07,0,.14-.07.14-.14.14a.2.2,0,0,0-.22.22c-.07,0-.07.07-.07.14-.14.44-.22.8-.65,1-.07,0-.21.22-.21.29a1,1,0,0,1-.51.43c-.07,0-.14.07-.14.22-.22.5-.79.65-1,1.15,0,.22-.22.22-.29.22-.43.07-.65.21-.65.57s-.07.43-.14.51c-.36.21-.43.64-.65.79-.14.36-.5.5-.65.72s-.36.29-.43.5-.21.29-.29.43a5.22,5.22,0,0,0-.57.36c-.15.15-.36.15-.43.22a.48.48,0,0,0-.29.5c0,.08-.15.29-.22.51s-.5.36-.57.79l-.15.07a3.06,3.06,0,0,0-.65.65,2,2,0,0,0-.5.58c-.43.21-.5.72-.94,1-.28.21-.36.5-.57.79-.43.07-.58.36-.94.72a6.18,6.18,0,0,0-.58.65.19.19,0,0,1-.21.21,13.32,13.32,0,0,1-1.08,1c-.22.22-.51.43-.58.72,0,.14-.14.29-.21.29a1.42,1.42,0,0,0-.72.79,3.05,3.05,0,0,1-.36.58c-.44.28-.72.93-1.23,1.15a6.11,6.11,0,0,0-1.37,1.29c0,.36-.43.58-.64.8s-.29.28-.36.5l-.51.5a31.18,31.18,0,0,0-2.73,2.67c-.08.29-.29.36-.51.57a1.87,1.87,0,0,1-.79.72,1.21,1.21,0,0,0-.36.44,2.26,2.26,0,0,1-.5.64c-.58.51-1.08,1.08-1.59,1.59-.21.21-.29.43-.5.65-.15.07-.22.21-.29.28a3.87,3.87,0,0,0-1.22,1.23,1.64,1.64,0,0,1-.51.43,2.68,2.68,0,0,1-.86.94c-.15,0-.15.07-.22.07a8.58,8.58,0,0,1-1.73,1.94,2.69,2.69,0,0,0-.57.65c-.22.15-.29.36-.43.51s-.15.36-.36.43-.22.29-.29.5a.78.78,0,0,0-.15.79.69.69,0,0,1,.15.72c-.15.08-.15.15-.15.29a3.65,3.65,0,0,0-.07.87,1.39,1.39,0,0,0-.21.72,1.25,1.25,0,0,1-.22.86,1.14,1.14,0,0,0,0,.5,2,2,0,0,0,0,.65c0,.07.14.29.14.36a1.82,1.82,0,0,1,.08.65.87.87,0,0,0,.21.14c.07,0,.22.15.29.22a4.06,4.06,0,0,0,1.8.29h.86a3.11,3.11,0,0,0,.87-.07,1,1,0,0,1,.43-.08,2.94,2.94,0,0,0,1.37-.36c.43.15.86-.14,1.29-.28a8.36,8.36,0,0,1,1.16-.51,4.68,4.68,0,0,0,.93-.36,7.75,7.75,0,0,1,1.3-.72c.29-.21.65-.29.86-.57a15.74,15.74,0,0,0,1.59-1c.5-.29,1-.72,1.51-1.08a10.69,10.69,0,0,1,.93-.65,8.12,8.12,0,0,0,1.3-1.08,9.66,9.66,0,0,0,1.66-1.37,3.69,3.69,0,0,0,.5-.43c.14-.07.22-.22.29-.29a7,7,0,0,0,1.3-1.08,5.94,5.94,0,0,1,1.15-.93c.29-.22.5-.37.57-.58a20.52,20.52,0,0,1,1.8-1.73,13.74,13.74,0,0,1,1-1,1.51,1.51,0,0,0,.72-1,6.15,6.15,0,0,1,.29-.79,10.71,10.71,0,0,1,.65-1.8,2.92,2.92,0,0,0,.43-1.08,3.74,3.74,0,0,1,.5-1.08,5.29,5.29,0,0,1,.72-1.58,6.52,6.52,0,0,1,.58-1.51.46.46,0,0,0,.07-.29c.15-.43.51-.65.51-1.08a9.05,9.05,0,0,1,.5-.94,10.73,10.73,0,0,1,.94-1.8c.07-.07.07-.29.14-.36a9.64,9.64,0,0,1,.65-1.22,3.83,3.83,0,0,1,.65-1c.36-.29.5-.72.86-1.08,0-.14.07-.22.29-.22v.51c.07,0,.14-.07.14-.29a.27.27,0,0,1,.15-.22.22.22,0,0,0,.21-.21.93.93,0,0,0,.51-.79.37.37,0,0,0-.22.07c-.14,0-.22.14-.29.14a.93.93,0,0,1,.07-.43c.22-.15.29-.5.72-.65a.81.81,0,0,1,.29-.93,21.1,21.1,0,0,0,2-2.81,9,9,0,0,1,1.44-1.95,5.14,5.14,0,0,0,.86-1,1.53,1.53,0,0,1,.36-.5l3.32-3.31c.21-.07.28-.29.5-.29.21-.22.36-.29.58-.5a5.49,5.49,0,0,1,1.44-1.23,7.58,7.58,0,0,0,1.29-1,4.21,4.21,0,0,0,.43-.28,13.7,13.7,0,0,0,2-1.08,2.76,2.76,0,0,1,2.3,0c.22,0,.44,0,.51.07a2.66,2.66,0,0,1,1.73,1.65A1.83,1.83,0,0,1,164.18,106.81Zm-53.79,39.31v0Zm.14-5.68c.07,0,.07.14.07.14.15-.14.15-.14.15-.22s0-.07-.15-.07v.07C110.53,140.36,110.53,140.44,110.53,140.44Zm.36-.65H111l-.15-.15Zm.22-.72v.07c.14.14.21,0,.21-.07v-.22c-.07,0-.07.14-.21.14Zm.21-.51v.22c.08,0,.22-.15.22-.15v-.14C111.4,138.35,111.4,138.49,111.32,138.56Zm.58-1.51.14.14v-.14Zm.29-.5h.14l-.14-.08Zm.36-.51v0Zm.14-.57s0,.07.15.07v-.15Zm.36-.72V135c.07,0,.07,0,.07-.07s0-.22.08-.29C113.05,134.6,113.05,134.67,113.05,134.75Zm.36,4.1h-.29l-.07.14c.07.08.07.08.15.08A.19.19,0,0,0,113.41,138.85Zm-.21-4.61v.36l.21-.21v-.15a.07.07,0,0,0-.07-.07S113.2,134.17,113.2,134.24Zm.21,4.54c.22,0,.29-.15.29-.22C113.48,138.56,113.48,138.63,113.41,138.78Zm.43-.58c-.14.07-.14.15-.14.36a.56.56,0,0,1,.22-.07c.57-.65,1.22-1.22,1.8-1.8a.56.56,0,0,0,.07-.22h-.29A19.38,19.38,0,0,0,113.84,138.2Zm.08-5.11h0Zm-.08,4s0,.14.08.14.07-.14.07-.21S113.84,137,113.84,137.05Zm.15-.5V137a6,6,0,0,0,1.22-1,6.07,6.07,0,0,1,1.73-1.58c.14-.15.36-.29.36-.51a3.4,3.4,0,0,1,1.22-1.22,3.61,3.61,0,0,0,.8-.65,2.35,2.35,0,0,1,.79-1,3.28,3.28,0,0,0,.72-.72c.29-.43.65-.72,1-1.22A.24.24,0,0,1,122,129a.56.56,0,0,0,.5-.22,2.14,2.14,0,0,1,1.23-1.15,1.11,1.11,0,0,0,.07-.43c.14-.22.22-.44.29-.44a2.46,2.46,0,0,0,1.15-.93,3.76,3.76,0,0,1,.58-.51c.21-.14.43-.21.5-.43s.43-.36.58-.5a19.32,19.32,0,0,1,1.58-1.8,2.9,2.9,0,0,0,.86-1c.58-.14.65-.79,1.16-1,.14-.07.14-.14.21-.14a1.33,1.33,0,0,1,.51-.8c.57-.64,1.22-1.22,1.8-1.79a1.28,1.28,0,0,1,.72-.51c.29-.43.65-.72.93-1.15a.32.32,0,0,0,.22-.07,6.64,6.64,0,0,1,1.15-1.3,4.12,4.12,0,0,0,.87-1,2.69,2.69,0,0,1,1-1c.29-.21.51-.28.58-.57s.22-.29.43-.51a4,4,0,0,0,.79-.86,1.8,1.8,0,0,1,.8-.86c.07-.08.07-.15.21-.36s.15-.44.29-.51a11.8,11.8,0,0,1,1.37-1.37c.21-.14.29-.21.29-.43a.53.53,0,0,1,.36-.5c.14-.22.5-.51.57-.79a6.44,6.44,0,0,1,1.23-1.59c.28-.21.28-.65.64-.79,0,0,.15,0,.15-.14a8.38,8.38,0,0,1,.79-1.3c.5-1,1-2,1.51-3,.15-.43.07-.94.29-1.23.07-.07.07-.28.07-.43v-.36a1.2,1.2,0,0,0-.5-.72h-.22c-.14-.07-.29-.21-.5,0a3.09,3.09,0,0,1-1.08.72,2,2,0,0,0-1,.58,17.14,17.14,0,0,0-1.58.93c-.58.29-1.08.8-1.59,1.08a12.3,12.3,0,0,0-2,1.37,1.61,1.61,0,0,1-1,.43.4.4,0,0,0-.36.22c-.15.14-.22.36-.43.5s-.29.36-.36.65-.22.29-.29.43a6.5,6.5,0,0,0-1.8,1.52c-.36.28-.51.57-.94.79-.21.07-.29.21-.5.36a18.11,18.11,0,0,0-1.66,1.73,11,11,0,0,0-2.16,2.3c-.07.07-.07.22-.14.22-.44.14-.51.57-.8.86a5.71,5.71,0,0,1-1.22,1.37c-.5.65-1.22,1.15-1.37,1.94l-.14.07c-.36.29-.58.8-1,1.23-.22.29-.36.72-.58,1-.07.14-.07.28-.21.36a13.29,13.29,0,0,0-1,1.73.53.53,0,0,1-.14.28c-.44.51-.87,1-1.23,1.52a1.31,1.31,0,0,0-.5.72.58.58,0,0,1-.51.36c0,.21-.07.28-.28.28s-.15.22-.22.22.22.07.22.22,0,.21-.15.28a7.89,7.89,0,0,0-.79,1.52c.22.36-.14.57-.29.86l-.07.14c-.22.29-.29.65-.5.87s-.29.72-.58.93-.22.29-.22.51c-.21.57-.64,1.08-.79,1.65-.14.08-.21.22-.43.29a.32.32,0,0,1-.07.22,3.73,3.73,0,0,1-.72,1c-.22.36-.07.79-.36,1.08a1.46,1.46,0,0,0-.36.93,1.64,1.64,0,0,1-.15.51c-.21.28-1,1.8-1.15,2.08A4.16,4.16,0,0,1,114,136.55Zm.14-4c.07,0,.07-.15.07-.15Zm.22-.22a.07.07,0,0,0,.07-.07A.07.07,0,0,0,114.35,132.37Zm.57-1.08v0Zm0,1.87v0Zm.22-2.45.07.08v-.08Zm.29-.43.07-.07v-.14C115.43,130.21,115.28,130.21,115.43,130.28Zm16.34-10.08a1.45,1.45,0,0,0-.64.51c-.44.21-.51.79-1,.86-.15.14-.15.22-.15.22-.14.43-.57.57-.79.93-1.58,1.59-3.17,3.1-4.68,4.68a23.54,23.54,0,0,0-1.87,1.87c-2.09,2.09-4.25,4.18-6.34,6.27-.07.14-.29.36-.36.5a.39.39,0,0,1-.14.36.41.41,0,0,0,.36-.14c.57-.51.93-1.15,1.65-1.51.08-.08.08-.15.22-.29s.36-.36.58-.72c.5-.43,1-.94,1.51-1.44l3.89-3.89c1.72-1.66,3.31-3.31,5-5,.87-.79,1.73-1.66,2.6-2.59A.84.84,0,0,0,131.77,120.2Zm-15.84,8.86.07.14v-.14Zm.29-.51v.15l.07-.15Zm0,1.8v.15h.07Zm.29-2.37v0Zm.43-1.08c.07,0,.07.07.07.21a.54.54,0,0,0,.07-.21Zm.29,0c.07-.15.21-.22.21-.29S117.23,126.68,117.23,126.9Zm.5,25h-.29l-.14.08a.56.56,0,0,0,.22.07A.67.67,0,0,1,117.73,151.88Zm-.21-25.49c0,.08-.08.08-.08.22a.48.48,0,0,0,.29-.5C117.52,126.11,117.52,126.18,117.52,126.39Zm.21-.57v.29c.07-.15.15-.22.15-.29s0-.22.14-.22C117.8,125.6,117.8,125.67,117.73,125.82Zm.79,25.7c-.21,0-.43,0-.5.15s-.22,0-.29.21h.51C118.31,151.74,118.38,151.74,118.52,151.52Zm-.5-26.35v.29c.07,0,.22-.07.22-.15s0-.14-.15-.21Zm.07,2.09v0Zm.22-2.67a.07.07,0,0,1,.07.08c0-.08,0-.08.14-.15C118.38,124.52,118.38,124.59,118.31,124.59Zm.21-.07c.08-.14.22-.21.22-.36C118.6,124.16,118.52,124.31,118.52,124.52Zm.8,26.86h-.58c-.14,0-.22.07-.22.14H119A.6.6,0,0,0,119.32,151.38Zm-.51-27.22c.07-.07.22-.07.22-.14s0-.22-.15-.22a.07.07,0,0,0-.07.07Zm.29-1v.15h.14A.14.14,0,0,0,119.1,123.15Zm5.47,25.49h-.14a9.67,9.67,0,0,0-1.44.72c-.22.22-.36.36-.65.36s-.36.15-.43.15c-.79.36-1.59.79-2.52,1.29,0,0,0,.08-.07.08h.36a1.83,1.83,0,0,0,.72-.08c.93-.5,1.72-.93,2.52-1.29a11.59,11.59,0,0,0,1.51-.94A.37.37,0,0,0,124.57,148.64Zm-4.89-26.13v0Zm0,1.87v0Zm.21-2.52.15.14v-.14Zm.65-.65v0Zm.14-.65.15.15v-.15Zm.15,1.8v.15s.07,0,.07-.15Zm.36-.65c.14,0,.14.08.21.08s-.07-.08-.07-.22C121.33,121.71,121.33,121.71,121.19,121.71Zm.14-1.8v0Zm.15-.64c.14,0,.14,0,.21-.08h-.07S121.62,119.27,121.48,119.27Zm0,1.8.14.14v-.14Zm.36-2.09-.15.14c.15,0,.15,0,.22-.14Zm1.58-2.31v0Zm0,1.52v.14l.07-.14Zm.5,30.09h0Zm.51-.36c.07,0,.07,0,.07.15,0-.15.07-.15.07-.22S124.5,147.92,124.43,147.92Zm.14-.07c.22,0,.22-.07.36-.29C124.79,147.64,124.72,147.78,124.57,147.85Zm.51.51h-.15c-.14,0-.21.07-.36.28C124.79,148.64,125,148.64,125.08,148.36Zm-.15-.8h.15c.21,0,.28-.07.28-.21S125,147.35,124.93,147.56Zm.36.72v-.14c-.07.14-.07.14-.07.22Zm.43-1.22c-.21,0-.36.07-.36.29C125.58,147.28,125.58,147.28,125.72,147.06Zm.15-.29a.58.58,0,0,0-.15.29C125.8,147.06,125.87,147,125.87,146.77Zm.65-.21c-.22,0-.44,0-.51.21C126.23,146.77,126.37,146.77,126.52,146.56Zm.21-.29c-.14.07-.21.07-.21.21A.32.32,0,0,0,126.73,146.27Zm.58-.29c-.15,0-.22,0-.29.07a.2.2,0,0,0-.22.22A.45.45,0,0,0,127.31,146Zm.21-.22a.19.19,0,0,0-.21.22A.31.31,0,0,0,127.52,145.76Zm.29-.28c-.14.07-.21.07-.21.21A.32.32,0,0,0,127.81,145.48Zm.29-.22c-.22,0-.22.07-.29.22C128,145.48,128,145.33,128.1,145.26Zm.22-.29a.19.19,0,0,0-.22.22A.34.34,0,0,0,128.32,145Zm1.08-.79h-.22c-.36.22-.72.36-.79.79h.5a.5.5,0,0,1,.22-.43C129.32,144.47,129.4,144.4,129.4,144.18Zm-.29.86c-.15,0-.15-.07-.22-.07s.07.07.07.22C129,145,129,145,129.11,145Zm.79-1.51c0,.15-.07.15-.22.15a.38.38,0,0,0-.28.21v.29C129.68,144,129.9,143.89,129.9,143.53Zm0,1.51h0Zm2.38-3.45v-.15a.34.34,0,0,0-.36.22,9.84,9.84,0,0,0-1.8,1.73c-.15.07-.15.14-.15.14a.91.91,0,0,0,.43-.07A15.11,15.11,0,0,0,132.28,141.59Zm-.22-21.6c-.14,0-.29,0-.29.21C132,120.2,132.06,120.06,132.06,120Zm5.33-5.62c-.22,0-.29.14-.43.21-1.15,1.23-2.31,2.31-3.39,3.39-.5.5-.86,1-1.36,1.51a.51.51,0,0,0-.15.43h.15c.21-.21.5-.29.72-.5a3.63,3.63,0,0,1,.79-.72.93.93,0,0,0,.36-.5,3.65,3.65,0,0,1,.72-.8c.79-.86,1.58-1.72,2.52-2.59C137.39,114.73,137.39,114.51,137.39,114.37Zm-4.82,26.79-.29.28C132.49,141.44,132.57,141.37,132.57,141.16Zm-.08,1.51h0Zm3-4.18c-.15-.14-.22-.14-.22,0-.93.79-1.73,1.66-2.59,2.45a.28.28,0,0,1-.14.22.4.4,0,0,0,.5-.08c.65-.64,1.3-1.22,1.94-1.8a2.15,2.15,0,0,1,.29-.5c.07,0,.07-.15.22-.22Zm-1.66,2.95-.07.15v.07C133.79,141.59,133.86,141.59,133.86,141.44Zm.22-.07-.07-.07v.14Zm.29,3.1v-.22a.62.62,0,0,1-.15.22v.07a.56.56,0,0,1,.07.22.08.08,0,0,0,.08-.08Zm.28-1a.45.45,0,0,0-.07-.29c0,.07,0,.22-.07.22v.07c0,.07.07.22.07.29s.07-.07.07-.22Zm.22-1v-.07l-.07.07Zm2.23-6.7-.14-.07v.07Zm1.3-22.46a.52.52,0,0,0-.43.14,3.5,3.5,0,0,0-.51.51c-.07.07-.07.28-.07.43.29,0,.5-.07.58-.29A5.12,5.12,0,0,0,138.4,113.29Zm-.65,20.3c-.07,0-.07.15-.07.29a.07.07,0,0,1,.07.07c0-.07.14-.07.14-.07S137.89,133.59,137.75,133.59Zm.36-.72c-.14,0-.14.08-.14.22s.14,0,.14-.14S138.11,132.87,138.11,132.87Zm0,3.17L138,136V136Zm.29-3.74h-.15v.07Zm.29-19.3c-.08.07-.22.07-.22.29C138.61,113.29,138.69,113.22,138.69,113Zm0,18.58v-.22c-.08.15-.08.15-.22.22v.07a.14.14,0,0,0,.14.14S138.69,131.79,138.69,131.58Zm2.88-21.68c.14,0,0-.21,0-.28h-.08a4.44,4.44,0,0,0-.79.86,2.59,2.59,0,0,1-.79.94c-.36.36-.72.79-1.15,1.15a.78.78,0,0,0-.07.43.42.42,0,0,0,.28-.07,17.86,17.86,0,0,0,1.52-1.66A10.91,10.91,0,0,0,141.57,109.9Zm-2.67,21.17V131c-.14,0-.14,0-.14.07s-.07.22-.07.29.21-.07.21-.21Zm.29-.57-.07-.15v.15Zm.22-.65h-.15l.15.14Zm.28-.65v-.14c-.14.14-.21.14-.14.21v.08C139.69,129.35,139.77,129.27,139.69,129.2Zm.22-.5a.61.61,0,0,0,.07-.22C139.91,128.48,139.77,128.48,139.91,128.7Zm.07,5.47v-.07a.07.07,0,0,0-.07.07Zm.07-5.9v.14c.22,0,.22-.22.22-.5C140.2,128,140.05,128.05,140.05,128.27Zm1,4.68a.66.66,0,0,0-.57.21c-.08.15-.22.22-.29.43s-.15.29-.15.36h.22c.22-.21.43-.36.58-.5S141.06,133.16,141.06,133Zm-.65-5.33c0,.07-.14.14-.14.29.22,0,.22-.15.22-.22s0-.07-.08-.22Zm.29-.65h.07l-.07-.07Zm21.53-21.67v-.08a2.08,2.08,0,0,0-1.08.36c-.21.22-.29.36-.5.44a12.35,12.35,0,0,1-2.52,1.36c-.07.15-.07.22-.15.22-.43.22-.64.58-1,.72a9.38,9.38,0,0,0-.94.79c-.07.07-.29.07-.36.29-.22.07-.22.29-.43.5a8,8,0,0,1-.79.72c-.22.08-.29.29-.37.51s-.36.14-.43.29-.28.28-.43.5-.07.5-.29.65-.5.36-.57.5a6.9,6.9,0,0,0-.72.87,3.8,3.8,0,0,1-.65.79,2.67,2.67,0,0,1-.72.57,6.26,6.26,0,0,0-.58.87c0,.14-.14.21-.21.36a1.12,1.12,0,0,0-.51.65c0,.14-.14.28-.21.43s-.29.29-.51.36c-.07.14-.21.22-.21.36a2.54,2.54,0,0,1-1.3,1.44v.29s.14.14,0,.21c0,.22-.07.22-.29.22a.3.3,0,0,0-.29.29c0,.43-.28.65-.28.93a1.27,1.27,0,0,1-.44.87,1.54,1.54,0,0,0-.36.93c-.14.08-.21.08-.28.15a.38.38,0,0,0-.15.36c.15,0,.15.07,0,.14a3.09,3.09,0,0,0-.86,1.3v.14c-.15.07-.22.22-.43.22a.56.56,0,0,0-.22.07c-.07,0-.07.07-.07.22s.07.28-.07.5a.76.76,0,0,1-.36.5c-.15.15-.29.29-.15.51s.15.36,0,.65c-.36.72-.72,1.44-1,2.08a5.86,5.86,0,0,0-.64,1.66v.07H141c.22-.07.36-.21.58-.21a2.3,2.3,0,0,0,.14.5c.07,0,.14-.07.29-.07,1.15-1.23,2.3-2.45,3.45-3.6a.45.45,0,0,0,.15-.51c-.36.08-.43.36-.72.51-.07,0-.22,0-.22-.15v-.07a7,7,0,0,1,1.51-1.37.61.61,0,0,1,.08-.36c.43-.36.79-.79,1.22-1.08.07-.5.5-.72.79-1.08a23,23,0,0,0,1.87-2,.86.86,0,0,0,.51-.51,6.29,6.29,0,0,1,.65-.79c.57-.5,1.08-1.08,1.58-1.58a25.71,25.71,0,0,1,1.8-2.09.71.71,0,0,0,.36-.43,4.33,4.33,0,0,1,.72-.87,9,9,0,0,0,.72-1c.22-.07.36-.28.51-.43a4.14,4.14,0,0,1,.64-.93,11.5,11.5,0,0,1,.87-.94c.07,0,.07-.07.14-.22.72-1.08,1.51-2.3,2.23-3.38a15.28,15.28,0,0,0,1.37-2.66A1.93,1.93,0,0,0,162.23,105.3Zm-21.38,21.17H141l.07-.08C141,126.39,141,126.39,140.85,126.47Zm.5,6.19a.31.31,0,0,0-.29.29C141.28,133,141.35,132.87,141.35,132.66Zm-.14-6.48v.07a.07.07,0,0,1,.07-.07Zm.36,6.26a.32.32,0,0,0-.22.22A.2.2,0,0,0,141.57,132.44Zm-.08-7v.07a.22.22,0,0,0,.08-.15A.08.08,0,0,0,141.49,125.39Zm0,27.86c0,.07.08.22.22.07a.15.15,0,0,0,.14-.14c-.07,0-.14.07-.28.07Zm.08-21.38h0Zm.28-22.54c-.07,0-.14.07-.14.29C141.78,109.47,141.85,109.47,141.85,109.33ZM141.71,125v.22a.07.07,0,0,0,.07-.07c.07,0,.07-.15.07-.15a.07.07,0,0,0-.14,0Zm0,6.92c0-.08.07-.22.14-.22S141.78,131.87,141.71,131.87ZM143,108c-.51.15-.72.58-1,.87a.5.5,0,0,0-.15.43c.15,0,.22,0,.22-.15.29-.14.5-.5.79-.64A.77.77,0,0,0,143,108Zm-1.16,23.55c.15-.07.15-.22.29-.22C142.07,131.51,142.07,131.58,141.85,131.58Zm0,.07v0Zm0,21.53c.22,0,.51,0,.51-.22h-.22C142.07,153,142,153,141.85,153.18Zm.15-28.87.07.07c0-.07,0-.07.07-.22C142.07,124.31,142.07,124.31,142,124.31Zm.14-.15a.83.83,0,0,0,.51-.36v-.14c0-.07-.08-.07-.08-.07a.07.07,0,0,0-.07-.08A.78.78,0,0,0,142.14,124.16Zm.15,7.2h-.15a.58.58,0,0,1,.15-.5c.57-.58,1.22-1.15,1.8-1.8.07-.07.07,0,.21.14v.15A25.39,25.39,0,0,1,142.29,131.36Zm.72-4.75a.14.14,0,0,0-.15-.14h-.07A.26.26,0,0,0,143,126.61Zm.93-19.87h-.14A3.83,3.83,0,0,0,143,108c.07-.14.14-.14.28-.14a2.42,2.42,0,0,0,.65-1C144.09,106.81,143.94,106.74,143.94,106.74Zm-.65,15.48s.08,0,.08.07.14-.07.14-.22C143.37,122.07,143.37,122.07,143.29,122.22Zm.22-.36v.21a.28.28,0,0,0,.14-.28.27.27,0,0,0,.15-.22A.26.26,0,0,0,143.51,121.86Zm.43-.87h-.14c0-.43.07-.72.5-.79v.51C144.16,120.78,144.09,120.92,143.94,121Zm.15,0h0Zm.21-14.61c-.21,0-.21.14-.21.21A.22.22,0,0,0,144.3,106.38Zm.51-.8a.71.71,0,0,0-.51.8A.64.64,0,0,0,144.81,105.58Zm-.51,15.2v0Zm.79-15.48c-.14,0-.21.14-.21.28C145,105.51,145.09,105.51,145.09,105.3Zm-.21,14.61s.07,0,.07-.14S144.88,119.91,144.88,119.91Zm1.29-16.2c-.07.07-.28.07-.28.22a8.44,8.44,0,0,0-.72,1.08c-.08,0-.08.21-.08.29a.24.24,0,0,0,.15-.08,2.9,2.9,0,0,0,.86-1.08A.78.78,0,0,0,146.17,103.71Zm-1.08,15.48a.08.08,0,0,1,.08.08c.07,0,.07-.08.21-.08Zm.29-.07c.07,0,.22-.14.22-.21C145.45,118.91,145.38,119,145.38,119.12Zm.29-.21c.07-.15.22-.22.22-.29v-.22C145.67,118.47,145.67,118.69,145.67,118.91Zm.22,9c-.22.07-.22.07-.22.28A.32.32,0,0,0,145.89,127.91Zm0-9.58c.21,0,.21-.14.28-.22C146,118.11,146,118.19,145.89,118.33Zm.28,9.36c-.21,0-.28.07-.28.22A.25.25,0,0,0,146.17,127.69Zm.8-25c-.51.22-.8.51-.8,1a1,1,0,0,0,.58-.5A.58.58,0,0,0,147,102.7Zm-.72,15.2c0,.07-.08.07-.08.21.08-.14.08-.14.22-.14Zm.43,9.21h-.51v.58A.7.7,0,0,0,146.68,127.11Zm-.22-9.72c.15,0,.15.07.15.07s.07-.07.07-.14S146.61,117.39,146.46,117.39Zm.22-.07c.21,0,.21-.14.29-.36C146.75,117.1,146.75,117.1,146.68,117.32Zm.29,9.58c-.22,0-.29.07-.29.21C146.89,127.11,147,127,147,126.9Zm.21-24.41H147l-.07.14C147,102.63,147,102.63,147.18,102.49ZM147,117c.07,0,.21-.07.21-.14S147,116.89,147,117Zm.21,9.65c-.14,0-.21.07-.21.29C147,126.9,147.18,126.75,147.18,126.61Zm-.14,1.66v0Zm.43-2c-.22.14-.22.14-.29.36C147.4,126.61,147.47,126.47,147.47,126.25Zm-.29,23.47c.07-.07.07-.14.07-.28.22-.22.44-.29.65-.51a6.16,6.16,0,0,0,.87-.57c.28-.08.5-.44.79-.58a7.28,7.28,0,0,1,.79-.43c0,.21,0,.43-.22.5s-.43.43-.64.58a9.81,9.81,0,0,0-1.23.79,1.62,1.62,0,0,1-.79.43A.45.45,0,0,1,147.18,149.72Zm0,1h0ZM147.4,102l-.15-.07V102Zm-.15,14.69c.22-.07.22-.29.22-.5A.53.53,0,0,0,147.25,116.67Zm0,34.06a.65.65,0,0,1,.72-.5c.08,0,.08,0,.08.14s.14.07,0,.07a1,1,0,0,1-.36.22A1,1,0,0,1,147.25,150.73Zm.22-34.56c.22,0,.22-.07.29-.15C147.54,116,147.54,116.1,147.47,116.17Zm.29,9.94c-.22,0-.29.07-.29.14C147.69,126.25,147.76,126.18,147.76,126.11Zm-.07-24.56v-.14h-.15C147.54,101.55,147.54,101.55,147.69,101.55Zm.28-.72c-.07,0-.21.07-.21.29v.22C148,101.19,148,101.05,148,100.83Zm-.07,15-.14.07c.14,0,.14,0,.21-.07Zm1.15,8.71a5.33,5.33,0,0,0-1.29,1.15v.44a.14.14,0,0,0,.14-.15c.36-.29.65-.65,1.08-1.08A.54.54,0,0,0,149.05,124.52Zm-.79-24v-.21a.22.22,0,0,0-.21.21v.29A1.92,1.92,0,0,0,148.26,100.54Zm-.21,14.76h.14l.07-.07C148.19,115.23,148.19,115.3,148.05,115.3Zm.21-15.26v.14c.07,0,.07-.07.22-.07V99.9C148.33,99.82,148.33,99.9,148.26,100Zm0,15h.07l.15-.07C148.33,115,148.26,115,148.26,115.09Zm.72-.58s.07,0,.07-.14H149Zm.07-.21c.15,0,.22-.08.29-.22C149.2,114.08,149.2,114.22,149.05,114.3Zm.51,9.72c-.22,0-.36.14-.51.5.15,0,.22,0,.22-.14.22,0,.29-.07.29-.22Zm-.22-9.94s.15,0,.15-.07v-.07C149.34,113.94,149.34,114,149.34,114.08Zm.51,9.58c-.15,0-.15.14-.29.21C149.77,123.87,149.85,123.8,149.85,123.66Zm.28-.29a.3.3,0,0,0-.28.29C150.06,123.66,150.13,123.59,150.13,123.37Zm.22-.22a.34.34,0,0,0-.22.22A.19.19,0,0,0,150.35,123.15Zm.29-.28c-.15,0-.15.14-.29.21C150.57,123.08,150.64,123,150.64,122.87Zm-.29,24.48c0-.07.14-.07.14-.07S150.49,147.35,150.35,147.35Zm.14-34.42h0Zm.08,34.35h-.08s0-.15.08-.15Zm.43-24.7a.32.32,0,0,0-.36.29C150.85,122.87,151,122.79,151,122.58Zm.14-.22c-.07,0-.14,0-.14.22C151.07,122.58,151.14,122.51,151.14,122.36Zm.79-1.08a1.6,1.6,0,0,0-.64.72c-.15.07,0,.22-.15.29.29,0,.43-.29.65-.43A.81.81,0,0,0,151.93,121.28Zm-.07,25.2v0ZM152.3,121c-.22.08-.22.08-.37.29C152.15,121.28,152.3,121.21,152.3,121Zm.28-.21c-.21,0-.28.14-.28.21S152.44,120.92,152.58,120.78Zm.22-.29a.19.19,0,0,0-.22.22A.34.34,0,0,0,152.8,120.49Zm.29-.29c-.22,0-.22.07-.29.29A.27.27,0,0,0,153.09,120.2Zm.29-.21c-.22,0-.29.07-.29.21S153.23,120.06,153.38,120Zm.21-.29a.19.19,0,0,0-.21.21A.32.32,0,0,0,153.59,119.7Zm.29-.29c-.22,0-.29.07-.29.29A.27.27,0,0,0,153.88,119.41Zm.21-.22a.19.19,0,0,0-.21.22A.31.31,0,0,0,154.09,119.19Zm1.08-1.36c-.14.07-.14.07-.21.07-.22.29-.5.5-.72.79-.07.07-.07.29-.07.43a5.9,5.9,0,0,0,1-.93Zm.29-.22c-.21,0-.21.07-.29.22C155.39,117.83,155.46,117.68,155.46,117.61Zm.22-.29c-.14,0-.22.07-.22.14S155.68,117.39,155.68,117.32Zm.57-.79a.73.73,0,0,0-.5.79A1,1,0,0,0,156.25,116.53Zm.22-.36c-.14.14-.22.14-.22.36C156.47,116.53,156.47,116.38,156.47,116.17Zm.29-.15c-.07,0-.22.08-.22.15C156.69,116.17,156.76,116.1,156.76,116Zm1.08-1.44a.26.26,0,0,1-.22.15,6.34,6.34,0,0,0-.64.79.34.34,0,0,0-.22.36c.07,0,.22,0,.22-.07a8.46,8.46,0,0,0,.79-.72C157.84,115,157.84,114.8,157.84,114.58Zm.22-.21a.31.31,0,0,0-.22.21A.19.19,0,0,0,158.06,114.37Zm0-7a.07.07,0,0,0-.08-.07C158,107.38,158.06,107.38,158.06,107.38Zm.57,6.2a.74.74,0,0,0-.5.72C158.49,114.22,158.63,114,158.63,113.58Zm.22-.08-.07-.07-.15.07Zm.57-.79v-.21c-.07.07-.14.07-.14.21v.22C159.35,112.93,159.35,112.93,159.42,112.71Zm.22-.5c-.07.07-.22.21-.22.29C159.57,112.5,159.64,112.42,159.64,112.21Zm.22-.07V112c-.08.15-.08.15-.08.22Zm.28-.51v-.14l-.07.14Zm.29-.43c-.07,0-.14.07-.14.22C160.36,111.42,160.43,111.27,160.43,111.2Zm.29-.5c-.07,0-.14.14-.14.21v.22C160.72,111.13,160.72,110.91,160.72,110.7Zm.22-.22s-.08,0-.08-.07,0,.07-.14.21C160.86,110.62,160.86,110.48,160.94,110.48Zm.79-1.3v-.07l-.07.07Zm.79-1.29v-.07l-.07.07Z"/><path class="cls-1" d="M196.93,135.25a3.33,3.33,0,0,0-2.08,1.3c-1.44.5-4,1.51-4.54,1.8-.14.21-.14.21-.14.28s.28.22.28.22c.65-.22,1.37-.5,2.16-.72v.07h-.07a3.09,3.09,0,0,0-1.87,1.37h-.22c-.86-.07-.93.72-1.44.94l-2.08.72a15,15,0,0,1-4.47,1.8c-1.15.21-2.3.36-3.53.65h-.72c-1,.72-1.94.21-2.81-.08a2.83,2.83,0,0,1-2-1.51c-.07-.29-.22-.5-.29-.86-1.44-1.52-1.22-3.24-.86-5a21,21,0,0,1,.86-2.88v-.15c-.22-.21-.22-.21-.29-.07l-5.11,3.6c-1,.58-2,1.23-2.88,1.8a25,25,0,0,1-3.24,2.31c-1.22.93-2.59,1.65-3.89,2.45a2.9,2.9,0,0,1-.72.28,23.62,23.62,0,0,1-2.38,0c-1.94-.36-2.66-1.44-3-3.6a4.45,4.45,0,0,1,.51-2.23c.5-.72,1.22-1.51,1.72-2.3,1.52-1.8,3.25-3.39,4.76-4.9a38.64,38.64,0,0,1,5-3.89,17.41,17.41,0,0,1,5-2c1-.51,3.17.5,3.68,1.36.36.51.28,1.08-.22.94-1.87-.58-3.31.36-4.46.72a21.18,21.18,0,0,0-4.47,3.46,28.45,28.45,0,0,1-2.52,2.52,29.16,29.16,0,0,0-3.38,3.38c-.58.29-.29,1-.72,1.3-1.44,1.44-1.44,1.44-1.08,1.65a5,5,0,0,0,1.73-.65,38.58,38.58,0,0,0,6-3.67c2.09-1.29,4.11-2.73,6.12-4.17,1.51-1.08,2.95-2,4.47-3,.36-.14.57-.36.79-.43a.61.61,0,0,1,.43-.14c.58.86,1.37.57,2,.93.07.15.28.15.5.22-.43.58.5.58.5,1.08s.22.94-.14,1.15a13.52,13.52,0,0,0-.5,2.23,25.39,25.39,0,0,0-1.3,3,7.45,7.45,0,0,0-.72,1.8c0,.64-.79.86-.43,1.44a5.29,5.29,0,0,0,1.8.21,14.55,14.55,0,0,0,5.4-1.15l3.89-1.73c4-1.51,7.77-3.17,11.73-4.39a24.23,24.23,0,0,0,2.88-.72.88.88,0,0,0,.58-.14l.14.21c-.07.07-.07.29-.07.29s-.21.14-.28.29a11.45,11.45,0,0,0-3.82.93v.08c.57.21,1.15.28,1.65.43a1.93,1.93,0,0,0-.21.29A2.34,2.34,0,0,0,196.93,135.25Zm-31.61,0h-.14v.14Zm.36-.5c-.07,0-.21.28-.21.36S165.68,135.11,165.68,134.75Zm1-.65a1.39,1.39,0,0,0-.93.65C166.26,134.75,166.62,134.53,166.69,134.1Zm1.15-.72a1.17,1.17,0,0,0-1,.72C167.48,134.17,167.77,133.88,167.84,133.38Zm1.23-.72c-.51,0-.94.07-1,.57C168.35,133.23,169,133.16,169.07,132.66Zm1.08-.79a1,1,0,0,0-1.08.79C169.57,132.66,169.86,132.44,170.15,131.87Zm1.15-.72c-.58.07-.94.21-1.08.72A1.27,1.27,0,0,0,171.3,131.15Zm1.08-.72c-.65-.08-.79.14-1.08.72A1.06,1.06,0,0,0,172.38,130.43Zm1-.72c-.51,0-.87.14-1,.64A.8.8,0,0,0,173.39,129.71Zm.29-.29h-.08v.07Zm12.24,10.29a6,6,0,0,0-1.59,0c-1.44.29-2.8.65-4.39,1-.07,0-.14.15-.43.29v.15s0,.07.14.07,0,.07.15.07c1-.14,1.94-1,3.24-.29h.21C184,140.51,185.2,140.51,185.92,139.71Zm.65-2c0-.22-.15-.22-.22-.22h-.14c.14.22.21.22.21.22Zm.43,1.87c-.07,0-.15,0-.07.22C186.93,139.71,187,139.71,187,139.57Zm.93-.22c-.07,0-.07-.14-.14-.14-.29,0-.5.14-.5.36h.57A.32.32,0,0,0,187.93,139.35Zm-.14-2.23h-.22l.22.15Zm1.08-.5c-.22.14-.79-.07-1,.43h.65C188.8,137.05,188.87,136.91,188.87,136.62Zm1.94-.65a1.73,1.73,0,0,0-1.8.65,2.12,2.12,0,0,0,1.8-.51Zm1.8-.72a2,2,0,0,0-1.8.65C191.61,136,192.18,135.9,192.61,135.25Zm.15,2.81a.29.29,0,0,0-.15.07A.29.29,0,0,1,192.76,138.06Zm1.08-3.31H193c-.07,0-.14.36-.14.5A.85.85,0,0,0,193.84,134.75Zm3.17-.87h.07a5.14,5.14,0,0,0-3.24.79v.08A8.76,8.76,0,0,0,197,133.88Zm-1.52,1.23V135h-.14Zm3.89-1.73a.94.94,0,0,0-.29.5H199c-.29-.21-.5-.21-.29-.5C199.09,133.23,199.17,133.38,199.38,133.38Zm.07,0c0-.15,0-.15.15-.15C199.53,133.31,199.45,133.31,199.45,133.38Z"/><path class="cls-1" d="M248.7,134.75c-1.44.57-2.8,1-4.32,1.51a2.36,2.36,0,0,1-1.44.43c-.5,0-.72.14-.57.65a2.12,2.12,0,0,0-.44.21l-7.77,3.17c-2.09.8-4.39,1.66-6.27,2.31a13.58,13.58,0,0,1-3.16,1.22,6.61,6.61,0,0,1-3.53.22c-.29-.22-.87-.51-1.23-.72a11.37,11.37,0,0,1-1.22-1.37,2.34,2.34,0,0,1-.43-1.37,18.83,18.83,0,0,1,.79-7,10,10,0,0,0,.72-2.16,5.08,5.08,0,0,0,.22-1.59c0-.5-.08-.57-.44-.21-1.73.57-3.38,1.22-4.89,1.8-.94.43-1.52.93-2.38,1.36-1.15.8-2.38,1.52-3.53,2.38-.43.43-1.37.43-1.8,1.08a36.9,36.9,0,0,0-6.26,5.26,13.74,13.74,0,0,0-1,1A7,7,0,0,1,197,145.4c-.29.29-.43.58-.72.87a1.25,1.25,0,0,1-1.08-.22c-.57-1-1.22-2.09-.57-3.31a11.66,11.66,0,0,1,.86-2c.36-.86.79-1.51,1.15-2.37a1.94,1.94,0,0,1,.58-.94,28.29,28.29,0,0,0,3.6-7.92c.36-.79.86-1,1.51-.79a5.3,5.3,0,0,1,1.95,1.58c.28.29.07.43,0,.58a4.39,4.39,0,0,0-1.16,2.37,2.44,2.44,0,0,0-.5.94c-.86,1.51-1.8,3-2.45,4.46a2.6,2.6,0,0,0-.43,1,.93.93,0,0,0,.43-.07c1.44-1,2.74-1.87,4.11-2.95a22.42,22.42,0,0,1,4.53-3.31,17.08,17.08,0,0,1,2.95-1.73,19.71,19.71,0,0,1,3.17-2,7.91,7.91,0,0,0,2.09-1.08,11.51,11.51,0,0,1,2.09-1,3.48,3.48,0,0,1,2-.36,1.85,1.85,0,0,1,.5.36c.36.51.94,1.08,1.29,1.66a1.85,1.85,0,0,1,0,.94c-.35,1.72-.79,3.45-1.22,5.25-.22,1.3-.57,2.74-.86,4a2.17,2.17,0,0,0-.36,1.37c-.15.79.36,1,1.22.87a26.72,26.72,0,0,0,5.55-1.16,44.82,44.82,0,0,1,4.24-1.73c1.23-.5,2.31-1.08,3.6-1.51,1.73-.5,3.46-1.37,5-1.8,1.59-.72,3-1.15,4.61-1.8,1.3-.72,2.74-1,4.11-1.73.43-.28,1.22-.14,1.87-.21a.19.19,0,0,1,.22.21C250.86,132.8,251.66,133.59,248.7,134.75ZM227,141.52h-.79l-.07.14c.07,0,.07.22.28.22A.51.51,0,0,0,227,141.52Zm1-.29c-.15,0-.79-.22-.94.21h.51C227.89,141.44,228,141.44,228,141.23Zm6.33-2.31c-.14,0-.36-.07-.57-.07s-.29.07-.51.43C233.73,139.43,234.16,139.43,234.37,138.92Zm1.88-.65a2.13,2.13,0,0,0-1.73.44v.14A2,2,0,0,0,236.25,138.27Zm1.08-.5h-.51a.61.61,0,0,0-.57.5C236.75,138.27,237.18,138.35,237.33,137.77Zm12.09-4.18c-.14-.07-.21-.28-.21-.07a7.3,7.3,0,0,0-2.38.65c-.07.07-.36.36-.58.22-.93-.22-1.65.36-2.59.64-.29,0,0,.65-.72.65a1.37,1.37,0,0,0-.72.22,3.8,3.8,0,0,1-1,.29c-1.15.43-2.3.72-3.31,1.15-.21.07-.5.21-.5.43.5.29.93,0,1.44-.07,1.87-.51,3.53-1.51,5.33-1.8.07-.15.21-.15.43-.22.36-.57,1.08-.36,1.44-.65a10.17,10.17,0,0,0,3.24-1.36C249.42,133.67,249.42,133.59,249.42,133.59Z"/><path class="cls-1" d="M293.63,131.51a1.76,1.76,0,0,1-.58.36,5.11,5.11,0,0,0-2.23.93c-2.37,1.59-4.82,3.46-7.27,5.19a12.77,12.77,0,0,1-1.87,1.44c-.65.43-1.08,1-1.66,1.36-1.94,1.66-3.67,3.17-5.62,4.69a12.86,12.86,0,0,1-2,1.22c-1.44.79-2.74,1.73-4.18,2.52a3.36,3.36,0,0,1-1.73.58,9.5,9.5,0,0,0-2.37.64,2.41,2.41,0,0,1-1.37-.28c-2.66-1.44-3.24-4.11-2.74-6.56a2.57,2.57,0,0,1,.29-1.15c.94-2,2-4.1,3-6.12.79-1.3,1.51-2.66,2.37-4a1.89,1.89,0,0,0,.51-1.08,4.77,4.77,0,0,0-1.37,1.08,43.65,43.65,0,0,1-3,3.24,28.39,28.39,0,0,0-2.59,3.17A49.13,49.13,0,0,1,254.1,144a4.31,4.31,0,0,1-.79.58,6.39,6.39,0,0,1-2.09,2c-.43.07-.58.36-.79.43a8.51,8.51,0,0,1-3,1.58,3.5,3.5,0,0,1-1.51,0,4.52,4.52,0,0,1-3.09-4,6.29,6.29,0,0,1,.72-3.6,35.67,35.67,0,0,1,4-7.27,17.86,17.86,0,0,1,2.66-3,48.19,48.19,0,0,1,4.47-4.24,6.94,6.94,0,0,1,3.6-1.37,12.91,12.91,0,0,1,3.74.86,13.48,13.48,0,0,1,1.73,1.23c.58.28.58.28,1.15,0a1.74,1.74,0,0,0,.36-.36,1.89,1.89,0,0,1-.21,1.15.53.53,0,0,0,.14.65c.07.07.14.21.5.07l.44-.22c1.29-1.58,3-2.81,4.17-4.68.58-.5,1.08-1,1.66-1.44a16,16,0,0,0,2.52-3.24c1.44-1.66,2.81-3.45,4-5,.72-.86,1.3-1.44,1.22-2.52A1,1,0,0,1,280,111c1.15-1.22,2.38-2.37,3.39-3.52a19.25,19.25,0,0,0,3.16-3.68,18.81,18.81,0,0,1,2.16-2,1.29,1.29,0,0,1,2.09.86,3.67,3.67,0,0,1-.07.94,1.44,1.44,0,0,0,0,1.08c.29.5.07,1-.43,1.44s-1.3,1.29-1.87,1.87a31,31,0,0,0-5.12,5.62,18.78,18.78,0,0,1-2,2.09c-.87,1.36-1.88,2.8-2.81,4s-1.59,2.45-2.59,3.53c-1.52,1.87-2.88,4-4.4,6-.5.58-.79,1.52-1.65,1.66-.07,0-.07.29-.07.29a1.11,1.11,0,0,1-.58,1.22c-.29.36-.36,1.08-.58,1.44-.93,1.3-1.51,2.67-2.44,3.89a9.71,9.71,0,0,0-1.23,2.31,10.66,10.66,0,0,1-.86,1.44,17.79,17.79,0,0,0-1.95,4.32c-.36,1.58-.07,2,1.52,1.36a12.76,12.76,0,0,0,5-2.3,51.91,51.91,0,0,0,5.83-4.25c3-2.59,6.12-4.68,9.14-7.13a67.78,67.78,0,0,1,6.27-4,1.88,1.88,0,0,1,1.65-.07c.22.72,1.16.43,1.52.86.21.07.36.36.5.43A.81.81,0,0,1,293.63,131.51Zm-34.78,1.8c.65-.58,1.15-.94,1.66-1.44.72-.94,1.37-1.73,2.16-2.6.07-.36,0-.57-.29-.57h-1.66a7.19,7.19,0,0,0-5,1.58,17.63,17.63,0,0,0-3,2.52,2.6,2.6,0,0,0-.87,1.08c-.21.65-.86,1.15-1.22,1.66a30,30,0,0,0-3.6,4.9,22.44,22.44,0,0,0-1.44,3.88.53.53,0,0,0,.07.58,1.13,1.13,0,0,0,.51-.07l2.95-2c1.22-1,2.52-2.23,3.89-3.38C255,137.48,257.12,135.39,258.85,133.31Zm4.83-3.32a.38.38,0,0,0-.58,0,4.12,4.12,0,0,0-1,1.23l-4.75,5.25a3.41,3.41,0,0,1-.58.65c-.21.36-.65.72-.93,1.15a4.63,4.63,0,0,0,.93-.5,41.21,41.21,0,0,0,4.76-4.46c.64-.65,1.22-1.37,1.8-2l.5-.58C263.89,130.64,263.82,130.28,263.68,130Zm2.08-3.6,1.95-2.23a4.09,4.09,0,0,0,.65.07.92.92,0,0,1,.36-1.15,31.26,31.26,0,0,1,2.23-2.23,11.2,11.2,0,0,1,.93-1.15,3,3,0,0,0,1.37-1.44c0-.07.43-.07.51-.22s.21-.5.43-.58c0-.21.07-.21.07-.21a.33.33,0,0,0,.14.29c-.14.65-.21,1.29-.93,1.65-.72.58-1.44,1.44-2.16,2a25.85,25.85,0,0,1-2.67,3c0,.07-.14.07-.28.07v.15a10.29,10.29,0,0,1-1.88,2.09C266.27,126.68,266,126.47,265.76,126.39Zm14,11.88a1.73,1.73,0,0,0-1.22.65A1.1,1.1,0,0,0,279.8,138.27Zm1.37-1.44a.59.59,0,0,0-.57.65C281.17,137.48,281.17,137.48,281.17,136.83Zm6.41-4.17a8.8,8.8,0,0,0,1.66-1.15,2.78,2.78,0,0,0-1.8.64,17.27,17.27,0,0,0-2.59,1.8,3.61,3.61,0,0,0-1.8,1.23c-.58.57-1.37.86-1.88,1.44.72.21,1-.07,1.66-.36C284.34,135,286,133.74,287.58,132.66Z"/></svg>