<?xml version="1.0" standalone="no"?>
<!DOCTYPE svg PUBLIC "-//W3C//DTD SVG 20010904//EN"
 "http://www.w3.org/TR/2001/REC-SVG-20010904/DTD/svg10.dtd">
<svg version="1.0" xmlns="http://www.w3.org/2000/svg"
 width="119.000000pt" height="119.000000pt" viewBox="0 0 119.000000 119.000000"
 preserveAspectRatio="xMidYMid meet">
<metadata>
Created by potrace 1.14, written by Peter Selinger 2001-2017
</metadata>
<g transform="translate(0.000000,119.000000) scale(0.100000,-0.100000)"
fill="#000000" stroke="none">
<path d="M454 1001 c3 -4 -6 -6 -20 -3 -15 3 -32 -2 -43 -12 -10 -9 -21 -13
-24 -9 -4 3 -7 1 -7 -6 0 -7 -4 -10 -9 -6 -5 3 -13 0 -16 -6 -4 -5 -13 -8 -21
-5 -8 3 -13 0 -11 -7 1 -7 -4 -11 -11 -9 -8 1 -11 -2 -6 -9 5 -8 2 -10 -9 -6
-9 3 -18 -1 -21 -10 -4 -8 -13 -13 -21 -9 -8 3 -17 0 -21 -6 -5 -7 -2 -8 6 -3
9 6 11 4 6 -4 -5 -7 -14 -10 -22 -7 -8 3 -13 0 -11 -7 1 -7 -6 -12 -16 -12
-11 0 -27 -11 -38 -24 -10 -13 -19 -20 -19 -17 0 6 -37 -23 -72 -56 -24 -24
-23 -55 3 -69 18 -9 20 -8 15 9 -7 21 41 74 122 132 183 132 315 173 351 108
13 -23 13 -35 2 -89 -13 -63 -63 -175 -97 -217 -11 -13 -49 -32 -89 -45 -46
-14 -70 -27 -70 -37 0 -19 21 -20 64 -3 19 7 35 12 37 10 2 -2 -15 -29 -37
-60 -22 -31 -37 -61 -34 -67 4 -6 1 -9 -6 -8 -16 4 -22 -22 -10 -41 11 -18 25
-5 61 54 13 22 26 42 30 45 14 13 60 80 60 88 0 7 59 29 103 38 4 1 10 2 13 3
4 0 1 8 -7 17 -9 11 -22 14 -42 10 l-29 -6 21 36 c23 39 25 44 13 44 -5 0 -17
-18 -27 -40 -10 -23 -22 -43 -27 -46 -4 -3 -3 7 4 23 17 39 61 112 54 91 -3
-10 -1 -18 5 -18 7 0 9 10 5 25 -4 17 -3 24 6 23 8 -2 17 22 26 63 13 60 13
69 -3 103 -10 20 -26 41 -37 47 -25 13 -80 21 -74 10z m-41 -446 c-3 -9 -8
-14 -10 -11 -3 3 -2 9 2 15 9 16 15 13 8 -4z m-33 -44 c-5 -11 -15 -23 -21
-27 -6 -3 -3 5 6 20 20 30 30 35 15 7z"/>
<path d="M876 1002 c-3 -3 -1 -11 5 -18 14 -17 -16 -81 -111 -240 -38 -64 -70
-118 -70 -120 0 -7 -102 -141 -127 -166 -14 -16 -32 -28 -40 -28 -7 0 -13 -4
-13 -10 0 -30 75 4 110 51 41 55 132 213 207 360 7 15 21 33 30 40 14 12 15
11 10 -6 -3 -11 -18 -78 -32 -150 -14 -71 -30 -143 -35 -159 -6 -16 -13 -57
-16 -91 -5 -52 -3 -63 10 -68 12 -5 25 6 46 41 16 26 34 52 40 59 5 7 10 15
10 19 0 10 191 324 202 330 5 3 -11 -34 -36 -83 -39 -77 -87 -188 -88 -203 0
-3 -5 -16 -11 -30 -5 -14 -10 -39 -11 -57 0 -17 -4 -29 -8 -26 -5 2 -8 -4 -9
-14 0 -10 -2 -28 -3 -40 -2 -14 2 -20 8 -16 6 4 5 -1 -2 -10 -9 -10 -11 -27
-7 -47 9 -41 19 -30 22 23 1 23 10 67 19 97 8 30 16 65 16 78 0 12 5 22 10 22
6 0 8 9 5 20 -3 11 -2 18 3 15 4 -3 11 2 14 11 4 10 2 13 -7 9 -6 -4 -4 0 6 8
9 8 17 18 17 22 0 10 81 170 117 230 37 62 37 82 2 94 -33 11 -37 8 -106 -109
-119 -199 -132 -223 -128 -230 3 -5 -1 -10 -9 -13 -7 -3 -28 -31 -46 -61 -17
-31 -33 -56 -35 -56 -1 0 -5 11 -7 25 -3 13 -2 22 2 20 4 -3 11 12 16 33 4 20
8 42 10 47 64 264 78 337 70 369 -5 22 -38 41 -50 28z"/>
</g>
</svg>
